/* XPM */
static char *b48bbff6fd694b08ac6deb4539f44d81BXzlo9kLHpFXuMxq[] = {
/* columns rows colors chars-per-pixel */
"60 60 30 1 ",
"  c #26211D",
". c #502417",
"X c #5E351E",
"o c #6B3633",
"O c #3C5014",
"+ c #306D05",
"@ c #306F05",
"# c #316F05",
"$ c #337703",
"% c #317205",
"& c #327304",
"* c #327205",
"= c #327305",
"- c #337404",
"; c #327604",
": c #337803",
"> c #347804",
", c #347805",
"< c #357B05",
"1 c #41671F",
"2 c #427D76",
"3 c #AC302A",
"4 c #C74D39",
"5 c #854440",
"6 c #AE5F5B",
"7 c #DB764F",
"8 c #CD906D",
"9 c #B2AD93",
"0 c #F0C090",
"q c #EDE4CC",
/* pixels */
":::::::::;&&@    >><<                            -->->--&&&@",
"::::::::::&@&    ><<<                            ----->-&&@&",
":::::::::    4444    7777777777777777777777777777    >;--&&&",
":::::::::    4444    7777777777777777777777777777    ---&;;-",
":::::::::    4444    7777777777777777777777777777    -------",
"&&$::::::    4444    7777777777777777777777777777    ;>--;>;",
"&&$::::::::::    777744444444444444447777777777777777    >&;",
"&@$::::::::::    777744444444444444447777777777777777    --;",
";:;;>$$$::::$    777744444444444444447777777777777777    ---",
";:--;$$$::::$    777744444444444444447777777777777777    ;>-",
"::-->$$$::::$    444444444444444444444444444444444444    ;;-",
":$$>$&>-;:::-    444444444444444444444444444444444444    >>-",
":::::;;--$$:>    444444444444444444444444444444444444    >:;",
"::::$>>;:$$$&    444444444444444444444444444444444444    ;:;",
"::::$:::>&-;-    333344444444333333333333444444444444    ,::",
"::::$$::;>->-    333344444444333333333333444444444444    >::",
">>>>>>;>>->-;    333344444444333333333333444444444444    >>-",
";&;-;--;----&    333344444444333333333333444444444444    -->",
"&>;-&-->-        333344443333888888888888333333333333    --@",
"-&>------        333344443333888888888888333333333333    >>=",
"-;------>        333344443333888888888888333333333333    ---",
"->---;>;;        333344443333888888888888333333333333    ;>-",
">->;->>>>    000000003333888800000000000088888888    ---;>;-",
";------><    000000003333888800000000000088888888    ;>-----",
"-----;&-;    000000003333888800000000000088888888    -->;--=",
"---;;&&&%    000000003333888800000000000088888888    -;&@=@@",
">-->@@&&@        00003333888800002222000000002222    --&=@@+",
";---=&@@%        00003333888800002222000000002222    &;&@=@+",
"--;>=&-&&@&%;    00003333888800002222000000002222    --&@@=>",
">---;>>@@&&@&    00003333888800002222000000002222    -;&=@=>",
";-&--;-;;&&;;        8888888800000000000000000000    >;+==;>",
"--;>>;>>,>;>;        8888888800000000000000000000    @=@@@@@",
"--->;;>::::::        8888888800000000000000000000    @@===@=",
">;;;&&;;:::::        8888888800000000000000000000    ==@=@@=",
"-&-&&@;>:    555566665555888800000000000088880000    @=&-->>",
"-;&&&&;>:    555566665555888800000000000088880000    ==>>---",
"-->;----;    555566665555888800000000000088880000    ;------",
"--------;    555566665555888800000000000088880000    >-->--;",
">->->        6666OOOO11111111OOOOqqqqqqqqOOOO    @@-;-;-->->",
"--;-;        6666OOOO11111111OOOOqqqqqqqqOOOO    ->--->-----",
"----&        6666OOOO11111111OOOOqqqqqqqqOOOO    >&-->--;>--",
">---;        6666OOOO11111111OOOOqqqqqqqqOOOO    ;-----;---;",
";    oooo    55551111111111119999qqqqqqqq99991111    @>>--->",
"-    oooo    55551111111111119999qqqqqqqq99991111    @-->---",
"-    oooo    55551111111111119999qqqqqqqq99991111    =>;;---",
"&    oooo    55551111111111119999qqqqqqqq99991111    @@@&&--",
"&@@@@        oooo1111OOOOOOOOXXXXXXXXXXXXXXXXOOOO    @@=&->;",
"@&@@&        oooo1111OOOOOOOOXXXXXXXXXXXXXXXXOOOO    =+&&---",
"&-&+@        oooo1111OOOOOOOOXXXXXXXXXXXXXXXXOOOO    @&@&;&-",
"--&&@        oooo1111OOOOOOOOXXXXXXXXXXXXXXXXOOOO    &@&&---",
"->;;--=;->---    OOOO00000000XXXX........XXXX0000    @&@&---",
"------&>-->--    OOOO00000000XXXX........XXXX0000    --;;>--",
">--;>->->-->$    OOOO00000000XXXX........XXXX0000    ------;",
";-->--------@    OOOO00000000XXXX........XXXX0000    >->;>->",
"---->->;--&&@+++@        XXXX            XXXX    >----------",
"----;---&&&&++++@        XXXX            XXXX    >;>--;>---;",
">&&+%--$#+++++++@        XXXX            XXXX    >;;$;>>;-->",
">;=@%$--##++++++@        XXXX            XXXX    ;>>>-&----;",
";;@@%%$$+@+++++@++@@@        --&-->--        &>>:>::&-;&;&->",
",,,,%@%%@@%+%%@%+&@&=        -->->-->        &&&;;::;@&&@&&&"
};
