/* XPM */
static char *_6c1fdf2d0ff4d24af89e55209086a56ASDIESohTEZl22zS[] = {
/* columns rows colors chars-per-pixel */
"60 60 29 1 ",
"  c #26211D",
". c #502417",
"X c #5E351E",
"o c #6B3633",
"O c #3C5014",
"+ c #306D05",
"@ c #316F05",
"# c #337703",
"$ c #317105",
"% c #327204",
"& c #327305",
"* c #337404",
"= c #327504",
"- c #337504",
"; c #327604",
": c #337803",
"> c #347804",
", c #357B05",
"< c #41671F",
"1 c #427D76",
"2 c #AC302A",
"3 c #C74D39",
"4 c #854440",
"5 c #AE5F5B",
"6 c #DB764F",
"7 c #CD906D",
"8 c #B2AD93",
"9 c #F0C090",
"0 c #EDE4CC",
/* pixels */
"$$$--------                            ,,,,    &&+-:::::::::",
"$$$--------                            >,,,    &$&-:::::::::",
"$$$----    6666666666666666666666666666    3333    :::::::::",
"-------    6666666666666666666666666666    3333    #:::::::#",
"-------    6666666666666666666666666666    3333    ::::::::-",
"-------    6666666666666666666666666666    3333    :::::#---",
"---    666666666666666633333333333333336666    :::::::::::$$",
"---    666666666666666633333333333333336666    :::::::::::$$",
"---    666666666666666633333333333333336666    ::::::::-#-::",
"---    666666666666666633333333333333336666    :::::::----::",
"---    333333333333333333333333333333333333    #:::::::---::",
"-::    333333333333333333333333333333333333    &:::----:::::",
"-::    333333333333333333333333333333333333    #:::----:::::",
"-::    333333333333333333333333333333333333    #::::---:::::",
":::    333333333333222222222222333333332222    &----::::::::",
":::    333333333333222222222222333333332222    #----::::::::",
":::    333333333333222222222222333333332222    &----########",
"$--    333333333333222222222222333333332222    -------------",
"---    222222222222777777777777222233332222        ---------",
"$--    222222222222777777777777222233332222        ---------",
"---    222222222222777777777777222233332222        ---------",
"---    222222222222777777777777222233332222        ---------",
"-------    777777779999999999997777222299999999    >>-------",
"-------    777777779999999999997777222299999999    >--------",
"-------    777777779999999999997777222299999999    >>&------",
"+$$$$--    777777779999999999997777222299999999    &&&@&----",
"++$$---    11119999999911119999777722229999        &$$&+#---",
"+$$$$--    11119999999911119999777722229999        &$$&-&---",
"--$$$--    11119999999911119999777722229999    $$$$$$-------",
"-$$$$--    11119999999911119999777722229999    $$$$$$-------",
"--$$$--    9999999999999999999977777777        -$-----------",
"$$$$$$$    9999999999999999999977777777        :::::>>>>#---",
"$$$$$$$    9999999999999999999977777777        :::::::####&#",
"$$$$$$$    9999999999999999999977777777        ::::::-&&*##&",
"------$    999977779999999999997777444455554444    #:-&$&*&#",
"-----$$    999977779999999999997777444455554444    ::-$$&**&",
"-------    999977779999999999997777444455554444    -----#&--",
"-------    999977779999999999997777444455554444    -----&#-#",
"---------$$    OOOO00000000OOOO<<<<<<<<OOOO5555        -***>",
"-----------    OOOO00000000OOOO<<<<<<<<OOOO5555        -****",
"-----------    OOOO00000000OOOO<<<<<<<<OOOO5555        -#&#&",
"-----------    OOOO00000000OOOO<<<<<<<<OOOO5555        :&#&#",
"------$    <<<<8888000000008888<<<<<<<<<<<<4444    oooo    &",
"------$    <<<<8888000000008888<<<<<<<<<<<<4444    oooo    #",
"------$    <<<<8888000000008888<<<<<<<<<<<<4444    oooo    &",
"---$$$$    <<<<8888000000008888<<<<<<<<<<<<4444    oooo    &",
"---$$$$    OOOOXXXXXXXXXXXXXXXXOOOOOOOO<<<<oooo        ++++-",
"---$$$$    OOOOXXXXXXXXXXXXXXXXOOOOOOOO<<<<oooo        +++&&",
"---$$$$    OOOOXXXXXXXXXXXXXXXXOOOOOOOO<<<<oooo        $$$#&",
"---$$$$    OOOOXXXXXXXXXXXXXXXXOOOOOOOO<<<<oooo        $$$&#",
"---$$$$    9999XXXX........XXXX99999999OOOO    ---------&---",
"-------    9999XXXX........XXXX99999999OOOO    -------------",
"-------    9999XXXX........XXXX99999999OOOO    -------------",
"-------    9999XXXX........XXXX99999999OOOO    +------------",
"----------#    XXXX            XXXX        +++++$#----------",
"----------#    XXXX            XXXX        +++++$----------#",
"-------::::    XXXX            XXXX        +++++++++---&$$$#",
"-------::::    XXXX            XXXX        +++++++++-#-&$$$#",
"------->::::#:$        --------        $$$++++++++++$::%$$$#",
"$$$$$$$>:##$$$-        --------        $$$$$$$$$$$$$$$$$::::"
};
