/* XPM */
static char *c4965c68c68649ebd2c83315bccb00df8SQe9TLXcjnIfspH[] = {
/* columns rows colors chars-per-pixel */
"60 60 38 1 ",
"  c #35000E",
". c #29071E",
"X c #170625",
"o c #69080E",
"O c #204704",
"+ c #265404",
"@ c #306D05",
"# c #306F05",
"$ c #316F05",
"% c #337603",
"& c #337703",
"* c #317205",
"= c #317305",
"- c #327204",
"; c #327304",
": c #337404",
"> c #337405",
", c #327604",
"< c #337705",
"1 c #337803",
"2 c #337903",
"3 c #347805",
"4 c #357A05",
"5 c #357B05",
"6 c #910C0E",
"7 c #B33C12",
"8 c #973232",
"9 c #C40E0E",
"0 c #DC170E",
"q c #EC2E1F",
"w c #BE6B3D",
"e c #CD8C5B",
"r c #F1934C",
"t c #D9B07F",
"y c #E7B892",
"u c #DFC196",
"i c #E6D7AF",
"p c #FFFED7",
/* pixels */
"11111111&,;#;5555555555555>#@@@@@:::>&>&>&>&>&>&>&>::&>:,;#;",
"11111111&,#;;5555555555555*#@@@@@:::&>&::::>&::::>&>&>&:;;;#",
"111111112&-&;5555555555<55######:>&>>&>::::&>::::&>&>&>&:;;;",
"11111111&&&2&5555555555***#*#;>>>&>&::&>&>&>&>&>&>::&::>:;,;",
"111111112&2&55555555555***;;#*>>&::>>>>>>&>::&>&::>&>&>&:::&",
";;&11111&2&2&&5&&&<<5,<<>;,>>>5542:5:#>>:>&>&>&:&>&::::>:;5;",
";;&111112&2&2&&2&11;;**55555555555:5####:&>&>&>:>&>::::&;&::",
";#&11111&2&2&22&&&1;;#*5555555554445#@##&>::::&>:>&>&>&>5:::",
",1,,&&&&2&2&&2&2&>&211115:555555:;###@@#::;5::,1&&&&1&&&;,,>",
",1:>>&&&&2&2&&2&>&>211115:555555:###@@@;:;&:::&1&&&&11115:>&",
"2&::&&&&2&2&&&&&&>,:1111<1555<55:###@#@>:5:::5;<&&&&1111&>&>",
"&222&>&>>2&2>&>&&&1111111111,;;&#;##>>>>&;:;&;#;-&2&1111&&&&",
"2&2&2>>&&2&&>&&&&&2&,11111<<,;;#;#;;::;5;::5:5;#-&,&&&11&&&,",
"&2&2&&&>2&&&&>>&&2&25:1111<,1;;;;;#;:;&:::&;::#;;&5,1&11&&2,",
"2&2&&2&2>&>&>&>&&>&>,,:;1,*###@;5;:::5::;5;:::,5;;##,1112&2&",
"&2&22&2&&>&>&>:>>&>&:5>;;;*XXXXXX::;&;:;&::::>,:,;#;;,11&2&2",
"&&&&&&&&,;::,;::&>&>::&>:&-XXXXXX&,,,>,>5:,:::::;;;;&&&&5:>,",
">&>:;&;5:5:::5::>:>&>&>&>XX77rr77XX555555:;,#;::>,;>&>&:&>>;",
"&>&>:>::::,::::::>:>&>&>>XX77rr77XX5555555;#;;:;>>>&;&>:;,>;",
">:>&>&::::;5::>::&>&>:>&&:&..oo..555555,>:###;:5>&&>&>&>&>>;",
"&>::::5;5;::>>5>&>&>&>:>&22..oo..55555,###@@@;::&>:>>&>&>&>:",
">&>&::;&;&::>>,,>&:&&..oo....oo..55555##@#@#@;::>&>&&:::&>&>",
"&>&>::&555555555:5555..oo....oo..22,&#####;;;>::&>&>>:::>&>&",
">&::;&;555555555555..>&>&..      ..#,#,#;;>>>>>:>&>:&>&>&>:>",
"::&>&-&;55555555555..:&>:..      ..#####;;,<,,;;::&>:>&>>>>>",
">&::--;;*#*55555555..&&..  oo88oo  ..222,111<##;-&>&>&>-;#;#",
"&:&>#;#;***55555555..52..  oo88oo  ..222,,<15;#;&>&>>&&-#;##",
">:>&;;;#***>555555555..  ooyyoo      ..2&2<,,@;;;&>::>>#;###",
";5::;>>;#;;;;;555&&12..  ooyyoo      ..22;;;;#;#,;:::&>-;#;:",
"&:::;*,;;;#;#;555&1..  oooo88oo        ..,;##;#;:5::&>--#;;,",
";:,&,5,;,;;,;;,5511..  oooo88oo        ..;;#;;;;:::::;&-;#,:",
"::<:,:5>&2,&&,#--XXwweettttttiitttttyeewwXX,1111&5,;;#-##;;;",
":&;5:5&&&1111,;;#XXwweettttttiitttttteewwXX11111,>5;;#;#*#*#",
"5;-&;;&&11111&,;1XXeettuuuuiippiiuuuutteeXX11111,,,;#;#;*>>*",
":;;;#;,2111111,,1XXeettuuuuiippiiuuuutteeXX11111;#;#;#;,>>>>",
":,;;;#,&1111111&=XX66tt00uuqqppqquu00tt66XX1111=#;#;#;;,:>>>",
"::;:::;::&&211111XX66tt00uuqqppqquu00tt66XX111=#;#;;;,:;>:;,",
"5:&;5:&;:>221111=XXee99uuiiiiqqiittuu99eeXX1##=##;#>:::5::5:",
";::5;::5::222:11=XXee99uuiiiiqqiittuu99eeXX1#&=#;#;>::::::::",
",:::&;::5:::&;,,@XX66tt00uuqqppqquu00tt66XX&&11=>>,,;5::5>::",
"&>&>:::>;&:5;:::*XX66yy00uuqqppqquu00tt66XX1111=>>>>:>:>;5::",
">:>&:::::;::&;5:*XXwweeuuuuiiiiiiuutteewwXX11111>>>>::::,::>",
"&>&>5;>>:5;:::;&*XXwweeuuuuiiiiiiuyyteewwXX1#-=-**#*>;;,>&;,",
">:>&>&>>::&;5::;;#;XXwwwweeeeeeeeeewwwwXX11=-#==#*>*;;,;&>5:",
":>-->>>;;>>>;;;,;++XXwwwweeeeeeeeeewwwwXX++&#-#=**###;;&>>&>",
"-###@@@@##;*;;;;#++OOXXXXXXXXXXXXXXXXXXOO++>&=-=#***;#;#;;>&",
"-##@#@##@#*#;##;#++OOXXXXXXXXXXXXXXXXXXOO++&---=#*;##;#-->:>",
"--#######>;;;;#;;;;-#-#---&&>&>:====>&>&>,:;,&-=*#;;;#-#-&>&",
">>-#--::&>&:&>:::&>:-;;,:::;,>&>1=--&;&;>::&>::&>&-#-;-#;,;:",
"&>#-#:::::>:>&:>&>>##;;;;5:5>&>&=1&&&&;,&>&>&::>:>--#-#;;:::",
">&--,&:5&>:>:>&:---;#;;>::>>&>&>1===;;;,>&>&>::&:&--;;;;;:;5",
"&>>&>>,;>&:&:&>:-#-#;;>>::>>>&>:==&#;#;;:>&>&>&>&>>>;;;,:>,:",
"&:&>&>&>>:::>>>###;###>>>>>>>>>:;#;##;;;&>:&>>>>&;:>>>>>;,>:",
">:>&>&>:&>&>>#########;;**>>;;;;;;#;;;;;>&>&&2&,&5:,>>::5:::",
"&>::&>&>>&>#@@@@#@@@@@;##*;#;#;##;;#>>;,&>&&2&&2&15;:>:::::,",
"::>&>:>&::&>@@@@@@@@@##;**#;#;#,#;;,>>>>>&>2&22&&&:::,;5:::;",
"&-#-;,>:###@@@@@@@#@#>###;;>::::;>>>5;&::;&;;;,2111&&&;::5;&",
"&--;;;>>##@@@@@@@@#>**#>>>>>:>::,,>>::;::5;;#;2&111&5:,::::;",
",;@-;,,;@#@@#@@@##@>>####,>>>>>,::>>::5:>>;#;#2:1&11::;,,;::",
"&5,&;#;;##;##;#;#>@###>>;;;;,>>;::>:;&;:>,,,,;;;;&11,#;;;;;,"
};
