/* XPM */
static char *_3b0924b30d24abeca129593b49f5671JzIEa0ywDPthGSA2[] = {
/* columns rows colors chars-per-pixel */
"60 60 167 2 ",
"   c #341F19",
".  c #42261A",
"X  c #58351E",
"o  c #345C0F",
"O  c #355612",
"+  c #3E5B11",
"@  c #3F5C11",
"#  c #306D05",
"$  c #316F05",
"%  c #337703",
"&  c #317005",
"*  c #327304",
"=  c #327305",
"-  c #337404",
";  c #327604",
":  c #397406",
">  c #337803",
",  c #347904",
"<  c #347A04",
"1  c #357A05",
"2  c #357B05",
"3  c #39720F",
"4  c #3F7808",
"5  c #336A14",
"6  c #435D12",
"7  c #44730B",
"8  c #45770A",
"9  c #47730C",
"0  c #49750C",
"q  c #4F770E",
"w  c #47780C",
"e  c #53770F",
"r  c #456011",
"t  c #4C6112",
"y  c #526710",
"u  c #536412",
"i  c #546810",
"p  c #5B6912",
"a  c #5C6D11",
"s  c #567112",
"d  c #547710",
"f  c #587112",
"g  c #5F7614",
"h  c #606F11",
"j  c #686F12",
"k  c #666F18",
"l  c #696B19",
"z  c #6D6A1B",
"x  c #6E6A1B",
"c  c #6A6F19",
"v  c #6E6E1B",
"b  c #716E1C",
"n  c #756E1E",
"m  c #7A6D1F",
"M  c #647616",
"N  c #6A7213",
"B  c #6D7212",
"V  c #6E7513",
"C  c #677218",
"Z  c #697318",
"A  c #6B7619",
"S  c #717213",
"D  c #767512",
"F  c #707A12",
"G  c #797B12",
"H  c #7C7813",
"J  c #7F7913",
"K  c #71761B",
"L  c #73701D",
"P  c #78771E",
"I  c #6C4326",
"U  c #426D20",
"Y  c #526539",
"T  c #7B6D20",
"R  c #7C7620",
"E  c #354344",
"W  c #424D4C",
"Q  c #47504F",
"!  c #515856",
"~  c #655E57",
"^  c #7A6443",
"/  c #73634D",
"(  c #74644D",
")  c #7C6748",
"_  c #6E665F",
"`  c #706250",
"'  c #746C64",
"]  c #7D756D",
"[  c #7E766E",
"{  c #816D22",
"}  c #866D24",
"|  c #896B25",
" . c #8C6C27",
".. c #8E6228",
"X. c #916529",
"o. c #926629",
"O. c #946A2A",
"+. c #956A2A",
"@. c #976B2B",
"#. c #976C2B",
"$. c #996D2B",
"%. c #9B6F2C",
"&. c #9C6F2C",
"*. c #837023",
"=. c #837522",
"-. c #847522",
";. c #857523",
":. c #8A7524",
">. c #8C7525",
",. c #947528",
"<. c #957429",
"1. c #977429",
"2. c #9D702C",
"3. c #896735",
"4. c #8C6832",
"5. c #8F6D3B",
"6. c #9B7233",
"7. c #97723C",
"8. c #A1722D",
"9. c #A1732D",
"0. c #A3742E",
"q. c #A37533",
"w. c #856A42",
"e. c #806845",
"r. c #957342",
"t. c #957443",
"y. c #957648",
"u. c #9D7B4A",
"i. c #A07B47",
"p. c #A07C48",
"a. c #A07C49",
"s. c #857D74",
"d. c #867D74",
"f. c #7B8013",
"g. c #868114",
"h. c #878714",
"j. c #8D8414",
"k. c #8E8514",
"l. c #8E8C14",
"z. c #938714",
"x. c #958814",
"c. c #938F14",
"v. c #9A8B14",
"b. c #9E8E14",
"n. c #969115",
"m. c #999316",
"M. c #9C9516",
"N. c #A39215",
"B. c #A69515",
"V. c #A39916",
"C. c #AA9A16",
"Z. c #B09E16",
"A. c #B9A617",
"S. c #8C837A",
"D. c #938D7F",
"F. c #968C80",
"G. c #968D81",
"H. c #968D83",
"J. c #978E84",
"K. c #9D948C",
"L. c #A39A92",
"P. c #A59C93",
"I. c #A79D95",
"U. c #AEA59C",
"Y. c #B8AEA5",
"T. c #B9AFA6",
"R. c #BCB2A9",
/* pixels */
"> > > > > > > > , > $ * $ > 2 2 2 2 2 2 2 2 2 2 2 > > 8 w % % * * - % $ $ - % ; * - - - - - - ; - - ; - - - , ; ; * $ * ",
"> > > > > > > > ; ; * $ ; , 2 2 2 2 2 2 2 < 2 2 > > > > > > * ; % * - # $ * > % % - , - - - - , - - , - - - - - * * * $ ",
"> > > > > > > > > ; * * * , 2 , 0.0.0.0.=.M 8 > > > > > , ; * - % * * * $ % % % % > e Z 8.2.0.; - ; - - - - - - - * * ; ",
"> > > > > > > > > > > > q.8.q.0.0.0.0.0.0.0.4 > > > > > > , - - * $ $ > % % % % % 8 +.+.+.+.0.0.0., - - - ; , - - * ; - ",
"> > > > > > > > +.&.> > , 0.0.0.0.0.0.0.0.0.0.0.:.> > > % ; - +.+.> % % % , ; +.O.O.+.+.+.+.0.0.* , 0.0.- ; ; ; ; - - - ",
"* * % > > > > +.+.2.0.0.0.0.0.0.0.0.0.0.0.0.0.0.=.> > > > % - +.+., , > % % ; +.+.O.+.O.+.+.0.0.0.0.0.0.$.+.- * * ; - - ",
"* * % > > > 8.8.8.8.0.0.0.0.0.0.0.0.0.0.0.0.0.0.<.-.e > % m m +.+.L n z z z z o.o.o.+.2.$.2.0.0.0.0.0.0.2.2.$.+.% ; - - ",
"* $ % > > 0.0.0.0.0.0.0.0.0.0.0.0.0.0.0.0.0.0.0.0.0.e > > +.+.+.+.+.+.........o.....+.8.0.0.0.0.0.0.0.0.0.8.+.+.$.- - ; ",
"; > ; ; 0.0.0.0.0.0.0.0.0.0.0.0.0.0.0.0.0.0.0.0.0.0.M e q +.+.+.+.+.+.o.o.o.o.o.o.+.2.2.0.0.0.0.0.0.0.0.0.0.+.$.+.+.; - ",
"; > - ; 0.0.0.0.0.0.0.0.0.0.0.0.0.0.0.0.0.0.0.0.0.0.0.0.2.+.+.+.+.+.+.+.+.8.0.0.8.0.0.0.0.0.0.0.0.0.0.0.0.0.0.0.+.+.- - ",
"> % - 0.0.0.0.0.0.0.0.0.0.0.0.0.0.0.0.0.0.0.0.0.0.X X X . . . . . . . X +.+.+.+.0.0.0.0.0.0.0.0.0.0.0.0.0.0.0.0.+.+.- - ",
"> % , - - - - <.0.0.0.0.0.0.0.0.0.0.I I I I X X X X . . . . . . . . . . . . X +.+.+.+.0.0.0.0.0.0.0.0.0.0.8.0 0 9 9 > , ",
"> > , > ; - ; 0.0.0.0.0.0.0.0.0.+.+.I I X X X X . . . . .       . . . . . . . X X X +.+.0.0.0.0.0.0.0.0.0.0.; ; ; - > ; ",
"> > - - - b b $.&.0.0.0.0.0.0.+.+.I X X X X . .                         . . . . X X X +.+.+.0.0.0.0.0.0.2.2.s s - - > ; ",
"> > ; - - +.+.+.+.0.0.0.0.0.+.+.I X X X . .                               . . . X X X +.+.+.+.0.0.0.0.0.+.+.+.+.- , > > ",
"> > - 7 7 } } } } 0.0.0.0.+.I I X . . . .                                   . . . X X X +.+.+.+.0.0.0.8.+.+.+.+.- - > > ",
"% % ; O. .- , - % 0.0.0.+.+.I X X . . .                                       . . . . X I +.+.0.0.0.0.0.0.0.+.+.+.+.; ; ",
"; ; ; +.} - - - ; 0.0.0.+.I I X . . .                                           . . . . X I +.+.0.0.0.0.0.0.+.@.+.@.- * ",
"* - +.> ; - * 0.8.0.0.+.+.I X . . .                                               . . . X X I +.+.+.0.0.0.0.0.0.+.+.- * ",
"- - | - - - ; 8.0.0.0.+.I I X . . .                                                 . . . X I I +.+.+.0.0.0.0.0.+.+.; * ",
", +.T - C +.+.+.+.0.0.+.I X X . .                                                   . . . X I I I +.0.0.0.0.0.0.+.+.; - ",
"; +.v - b +.+.+.+.0.+.+.I I . .                                                       . . . X X I +.+.0.0.0.0.- ; +.- - ",
"- +.+.+.+.+.+.0.0.0.0.+.I I . .                                                         . . . X X I +.0.0.0.0.0.- - - - ",
"- +.+.+.+.+.+.0.0.0.0.+.I X . .                                                           . . . X I 0.0.0.0.0.0.0.; , - ",
"- @.2.2.2.2.2.0.0.0.+.+.X . .                                                             . . . X I I 0.0.0.0.0.- - - * ",
"% $.2.8.0.0.0.0.0.0.+.I X . .                                                               . . X I 0.0.0.0.0.0.0.0.* $ ",
"% +.8.8.0.0.0.0.0.+.+.I X . .                                                               . . X I 0.0.0.0.0.0.0.0.$ $ ",
"* +.+.+.0.0.0.0.0.+.I X . . .                                                               . . X 0.0.0.0.0.0.0.q.8.$ $ ",
"; +.+.+.0.0.0.0.+.+.I X . .                                                                 . . . X 0.0.0.0.0.0.8.* * - ",
"- , +.+.+.+.2.0.0.+.X X . .                                                                 . . . X 0.0.0.0.0.0.q.* * - ",
"- - +.+.+.+.2.q.0.+.X . . .                                                           . .     . . X 0.0.0.0.0.0.q.8.* ; ",
", - , , +.+.+.+.+.+.X . .                                                             .       . . X 0.0.0.R 2 , , , * ; ",
"- - , , +.+.+.+.+.I X . .                                                                     . . X 0.0.0.P % , 2 2 2 * ",
"- - { *.+.O.2.8.+.I X . . .                                                               .   . . X 0.2.&.*.Z 8 2 2 ; ; ",
"; L @.+.@.O.0.0.8.I X . . . .                                                             .   . . X 0.+.+.+.+.d 2 2 2 ; ",
"- } +.+.2.$.0.0.0.I I X . . .                                                               . . . X 0.+.+.+.+.w 2 2 2 ; ",
"- - +.+.8.0.0.0.0.0.I X . . . .                                                       . .   . . X X 0.0.0.$.+.+.$.O.2 2 ",
", - +.+.0.0.0.0.0.0.I X X . . .                                                       . . . . . X I +.0.0.$.+.+.@. .2 ; ",
"; - - , 0.2.$.@.$.#.I I X X . .                                                         . . . . X I I +.+.&.&.+.....C s ",
"- - - 2.0.2.+.+.+.@.+.I I X . . .                                                         . . X X I I +.0.0.0.........l ",
"* % +.+.O.O.O.#.8.0.+.+.I X . . . .                                                 . . . . . X X I +.+.0.0.0.- , - - - ",
"; +.+.+.@.@.O.@.0.0.0.+.I X X . . . .                                               . . . . . X I I +.0.0.0.0.; ; - - ; ",
"* 8.6.&.y.u.u.u.u.i.7.3.+.I X X . . . .                                             . . . . X X I +.+.0.0.0.0.b b f - , ",
"* ; * 2.H.H.H.H.J.J.[ ~ +.I I X X . . . .                                       . . . . . X I I I +.0.0.0.0.0.+.+.c - - ",
"- - w.~ ~ ~ R.R.R.R.L.~ ~ ^ +.I X X . . . . .                                 . . . . . X X I I +.+.0.0.0.0.8.+.+.k : - ",
"* Y ` ~ L.L.R.R.R.R.Y.s._ / +.+.I X X . . . . .                           . . . . . X X X I I I +.0.0.0.0.0.0.+.+.+.+.- ",
"* Y ~ ~ I.R.R.R.R.R.R.H.[ / 0.+.+.I X X X . . . .                     . . . . . X X X I I O O O O y y y i y 8.+.+.+.- - ",
"* U ~ J.H.H.R.R.R.H.H.E E E 0.0.+.I I I X X . . . . . . . . . . . . . . . y y y y y y r O O O b.b.b.b.b.y y &.+.+.+., - ",
"; 3 ~ J.J.J.J.J.~ E E E E E 0.0.+.+.I I I I I . . . . . . . . . . . . . . 6 j B B B B a O j F b.b.b.j.G y y +.+.+.+.; - ",
"- * 0.0.q.J.' ~ E E E E W a.a.a.a.t.r.3.4.I I X X X X X X X X X X X X +.+.O B H J J J B O g.b.b.b.b.j.y y y +.+.@.- ; - ",
"- - q.0.* D.d.~ E E E E Q J.J.J.J.J.J.~ ~ +.I 0.0.0.0.X X X X X X X +.O O O O O J J J J =.z.b.b.b.A.A.A.A.A.i i +.- - * ",
"- - % % % * 8.8.0.0.0.~ ~ ~ K.R.R.R.R.~ ~ ~ e.0.0.0.0.0.0.0.0.+.+.+.+.O O M.m.m.C.C.J J x.v.b.Z.Z.A.A.A.c.f.y i +.- - * ",
"- - - - * % 0.0.0.) / ~ ~ P.U.R.R.R.R.d.d.~ / 0.0.0.0.0.0.0.0.0.+.+.+.O O A.A.A.A.A.=.J b.b.b.A.A.A.A.A.l.y y y y y % ; ",
", - - - 8.0.0.0.0.) ~ ~ ~ R.R.R.R.R.R.J.J.~ ~ 0.0.0.0.0.0.0.0.0.0.+.+.y y y F A.A.A.A.A.b.B.A.A.A.A.A.J G =.=.G y y * % ",
"- - - - - 8.0.0.0.5.~ H.J.J.J.R.R.T.J.! E E E , A 0.0.0.0.0.0.0.0.0.0.+.+.y i h V.A.A.A.b.N.A.A.A.j.j.J =.H a y + 6 * % ",
"- - > - - * % % - 6.~ S.J.J.J.J.~ ~ E E E E E % K 0.0.0.0.0.0.0.0.0.0.+.+.y y y c.A.A.A.b.N.A.A.A.J J J J H y o O O - * ",
", * $ * * ; - - $ $ $ 8.0.J.J.~ E E E E E ; , % P 0.M e e e e d e $.$.&.- - - y y y A.A.y y A.h.y =.=.G =.o O O % * * - ",
"2 % * $ * ; - - q.8.0.0.0.F.F.~ E E E E E 5 ; , >.0.: % % , > > - $.- ; - ; - , ; y * * $ * a a y D =.r 6 O o * % * - - ",
"; * $ * * ; ; * # $ 0.0.q.+.@.+.+.n % % ; % % ; =.,.> > * * ; ; - - - , - , - ; - y * * * $ y y y D G o O O o * % * > % ",
"% % ; ; * $ * * $ * $ * * $ * * $ * $ $ ; * * * # * * * * ; ; ; - - - ; - - - , - - ; * * * * * - - - o O # * - * * * > "
};
