/* XPM */
static char *c73a5984163046c288667446a304e72049x3h7Y5MBvBUpQH[] = {
/* columns rows colors chars-per-pixel */
"60 60 17 1 ",
"  c #306D05",
". c #306F05",
"X c #316F05",
"o c #337603",
"O c #337703",
"+ c #317205",
"@ c #317305",
"# c #327204",
"$ c #327304",
"% c #337404",
"& c #337405",
"* c #327604",
"= c #337705",
"- c #337803",
"; c #347805",
": c #357A05",
"> c #357B05",
/* pixels */
"--------O*$ *;>>>>>>>>>>>>=     .%%%%%;%o%;*%%;%%%o%%%;*%$$.",
"--------O* $*;>>>>>>>>>>>>+X    .%%%%%%%%%%o%%*o%%*;%%%o%..$",
"--------O*O-$;>>>>>>>>;;;;+XXXXX%%%%;%;%o*%%o%%%;%%%o*%%$$$O",
"--------OOO--;>>>>>>>>>+=+++X++$%%%o%%%o%;%%*;%%*o%%%;%%$*$;",
"------------>>>>>>>>>>;+++$%++&&o%o%%&&&%%o%%%o%%%o*%%;*o%%%",
"$$O----------->---;%;*=;=$*;+=;;>-%;&.&&%%*;%%*;%%%;%%%o*;%%",
"$$O----------------*$++>;;>>>>>;>>;;....;%%%;%%%;*%%o*%%%%*$",
"$.O----------------*+++>>>>>>>>>>>>;. ..*o%%*o%%%o%%%;%%%%%*",
"*-**%o----------%%O-----;;>>>>>>%&.&   .o&o&%%*-%-o-OOOO*%%%",
"*-%&%-----------%o$-----;;>>>>>>&..    $&o&o%o-;o-------**%%",
"--%%oo-;----;--o%%*;------>>;;>>$... . $o&o&;*&%-o------%o%;",
"-----$O%%---%%%--;----------=$$O.$..&$&&&o&o&o.$*-------;--*",
"-----%*o;---*o%-----------**-$$.$.$$o&o&o&o&;*$.$$%;-------O",
"-----%;%----%%%------=---==*-*$$$$.$&o&o&o&o%%.$$***-------O",
"--------*%%;%;*%%%-*%;$*=O++X+ $o&o&o&o&o&o&%%%%$$.$O;------",
"--------o%%%%%o%%%%o%&&$$$X+++X.&o&o&o&o&o&o*;%%*$.$$*------",
"ooO;ooO;%o%%%;%;;%%%o%%%;O*$$=**-*-%;*-%;*o%$%%&$$$$=--o;%;*",
"o$O%o*O%%*;%%%%%*o%%*;%%$*%%%;;;>>>>>;>>>>$$.$=%%*$o*%%o%$*$",
"%%*o%%%%%%*%%;%%%%;*%%o*%O*o;>>>>>>>>>>;;;$$$$%%%%;*o%o&%%&$",
";%;%%%o*;%;%%%%%%%%o%%%;%;%->>>>>>>>>>;;%$...*;%%%%%%%&o*;&$",
"*o&o%%%;*%%%&&;%;*o%%%%%%--->>>>>>>>>;$.$.   $%;%;*%o&o&%%;*",
"o&o&o*%%o%;%==%=%o%;*;%o;---;>>>>>>>>;$... X $%%%%%%&o&o%%%%",
"&o&o%;%o>>;>>>>>;>>>;%%%%;------;;;+*$...$$$$&&%%%%;o&o&o&%%",
"o&o&%%o>>>>>>>>>>>>>>o%;%-------;;+$$$$..$$&+&%%;%%*&o&o&o*;",
"&o&o&$*&;;>>>>>>>>>>;o*O=---------*%$.$$$*o*+$$**%&o&o&o+=&&",
"o&o&$$$$X+=;>>>>>>>>>-o-----------;--*--*-o=;++$;%o&o&&$X$$X",
"&o&o.$.$++*;>>>>>>>>>-------------------;o;;%*..O*&o&&&$.$..",
"o&o&$$$.++$;;>>>>>>>>---------------------***$$.*$o&o*$$$...",
"&o&o*&&$$$...*>>>;----------%%%;---------$$.$.$$*;%%&o&$.$$%",
"o&o&$$*$.$$.$*>;>----------o-%-----------$.$.$.$%%%%o&&.$.$$",
"&o**=%*$***=$$*$>--------oo&%%*o------****$.*$$*%%*%&&o$.$%%",
"o&O-=;;&--o%**$$%------;%oo*;%o------*.$$----o*---o$$.$.$.*$",
"&o&o%;-------*$$*%------*o&o%%;-----OO$$ *------*;*$$.++X++X",
"o&*o$$OO-----O*$%%%;----o&o&%%*-----OO$$*-------*$*$.$+$+++&",
"&&&$.$*o------**o%o*---O&o&oo%%---o%%;--*------O$$$.$.$+%&&&",
"o*$$$.*o-------Ooo&O----o&o&$O;o-;%%oo---------*.$.$.$$*%&&&",
"&o&o&o&o*;----------o&;%&o&o&o&o-*----------**$$$.$$$*;%%%;*",
"o&o&o&o&o%----------%o*%o&o&o&o&%-----------$  $.$.&&%*%%%%%",
"&o&o&o&o%%---o--;--o%%;*&o&o&o&o%%;--;------$$* $.$*%%%%;%;%",
"o&o&o&o&%%%%o&**%%%o*;%%o&o&o&o&%%-*o%O$--;%*$**&&*;%%%%%%*%",
"o&o&;%%&%;%%%o%%&&&%%%%%o&o&o&o&%%o*o&o*-------*&&&&%&&&o&o*",
"&o&o*%%%o*%%;*%%&&&%%;*;&o&o&o&o%%%;&o&OO-----o**$&&%%&&&o&;",
"o&o&o&&&%%%o%%%;++X+%*%%o&o&o&o&;*%%oo-----*.$$$++X+*$$*o&%%",
"&o&o&o&&%%;*%%o*X++$%;%%&o&o&o&o%o%%%------*$.$.X+++$$*$&o%%",
"&%$$=+=$$&&+%$$&++X+&$&&o*&&o&o&%%;*&o-;-%;%..$$++XX$.&$o&&o",
"#...    XX$+**$$X+++$$$.$$o&&o&o%%%oo&o%-*-%**&.X+++.$$$$$o&",
"$.. . . X +X$..$X+.$$..$$.&oo&o&o*%%&o&o%%&%&&&$X+$.$$$.$o&o",
"$$.. +.XX+$$$$.$++$.$$.$$$o&&o&o%;%%o&o*;%&&&*$$+++.$..$.&o&",
"&&$.$$&&o&o&o&&o&o&%#$$*%%;%%%;*%%$&%%;*%%%;*o%;*o.$.$.$$$*&",
"o&.$.&o&&o&o&o%&o&&..$$$%%*%*;%%%%**%%%%o*%%%%%%%%$$$.$.*%&&",
"&o$$*o&oo&o&o&o%%##$.$$&;*&&%%;%;$$$$$$%%;%o%;*%%;O$$$$+$%%%",
"o&&o&&o&&o&o&o&%#.#.$$&&%%&&%%*%O*$ $.$*%%%$%%o%%%$$&&&+*;%%",
"o&o&o&o&&o&%&&&.++X$..&&+&&&&=%$$X$X.$$$;*oOO;**%*%%&&%%%%%*",
"&o&o&o&oo&o&&...  X ..$$++$$$$$$+$ $$$$$%%%;O;%--;%%&&%%*;%;",
"o&o&o&o&&o&.          $.+X+X$X$.+X$X%%$*%%*-OO----;*%*;%%%%%",
"&o&o&o&oo%o&          .$+X+$X$.*++$*=%%%%%*OOO----%%%;%%%%%$",
"o$.$$&&o..        X+++XX+$*+%%%;$+=&%;*%%%**$$*----oo*%%%o%%",
"o$$.$$&&..        X+X++++$&&%&%%*$&&%%%%;*$$$.*o----o*%%;%;%",
"%*.$$**$ .  .     X+X+++$$&&&&&*%%&%*%%%&&$.$$o*----;o*$%**o",
"-;%*$.$*..$..$.$++X+++XXX$$$$&&*;%%%;%%*o&&*&$*$*o--&.$$$.$$"
};
