/* XPM */
static char *f621d2a8b17842c59b1ae5795e9a35e8aPyfFefdeTnYrQN3[] = {
/* columns rows colors chars-per-pixel */
"60 60 173 2 ",
"   c #345E0E",
".  c #355612",
"X  c #385712",
"o  c #3E5B11",
"O  c #306D05",
"+  c #396F07",
"@  c #34670B",
"#  c #346B09",
"$  c #3C6E08",
"%  c #337404",
"&  c #3C7306",
"*  c #347904",
"=  c #3C7805",
"-  c #337109",
";  c #3D7209",
":  c #336815",
">  c #374D2D",
",  c #355C24",
"<  c #34562D",
"1  c #3D522E",
"2  c #3C5828",
"3  c #344E36",
"4  c #3E4E34",
"5  c #34473F",
"6  c #344A3B",
"7  c #5D5F09",
"8  c #455D12",
"9  c #485F12",
"0  c #655E09",
"q  c #6B5F09",
"w  c #79570B",
"e  c #795B0A",
"r  c #456607",
"t  c #496607",
"y  c #4B6807",
"u  c #446D0A",
"i  c #4A6A0D",
"p  c #566808",
"a  c #477407",
"s  c #407906",
"d  c #427109",
"f  c #4C7308",
"g  c #5B720B",
"h  c #466111",
"j  c #4D6212",
"k  c #526710",
"l  c #596712",
"z  c #546810",
"x  c #5D6D11",
"c  c #54661A",
"v  c #467C1C",
"b  c #5D7010",
"n  c #60720C",
"m  c #6C710E",
"M  c #71700F",
"N  c #646E13",
"B  c #696F13",
"V  c #7C6F11",
"C  c #637111",
"Z  c #6D7212",
"A  c #727512",
"S  c #7B7512",
"D  c #727812",
"F  c #7F7913",
"G  c #44552E",
"H  c #50493E",
"J  c #475438",
"K  c #4D583B",
"L  c #50593C",
"P  c #5A5D3D",
"I  c #4B672A",
"U  c #4C7B25",
"Y  c #507E28",
"T  c #4F6530",
"R  c #686F3E",
"E  c #354344",
"W  c #3C4645",
"Q  c #434B4A",
"!  c #4E514E",
"~  c #545F41",
"^  c #5D5A54",
"/  c #655E57",
"(  c #5B6347",
")  c #636E4F",
"_  c #66724B",
"`  c #737B46",
"'  c #767E4A",
"]  c #6B645D",
"[  c #6A6762",
"{  c #736B64",
"}  c #74716A",
"|  c #7A726A",
" . c #7C7A71",
".. c #84550B",
"X. c #8D510D",
"o. c #A3480F",
"O. c #AE5C10",
"+. c #8D6E14",
"@. c #9C6D17",
"#. c #857E14",
"$. c #A3610E",
"%. c #A26C18",
"&. c #AC6B1A",
"*. c #B16310",
"=. c #B56A11",
"-. c #BE6A1D",
";. c #9A5A2E",
":. c #845632",
">. c #A75C2C",
",. c #827B22",
"<. c #877C3D",
"1. c #887C3C",
"2. c #B96530",
"3. c #C2691E",
"4. c #C8691F",
"5. c #DB7D1F",
"6. c #CE6625",
"7. c #C4662B",
"8. c #D86722",
"9. c #D26821",
"0. c #80786F",
"q. c #847C73",
"w. c #7B8113",
"e. c #60803E",
"r. c #7A8359",
"t. c #7F8866",
"y. c #858413",
"u. c #8D8414",
"i. c #8C8A14",
"p. c #918714",
"a. c #948914",
"s. c #9E8E14",
"d. c #9E8E1F",
"f. c #969115",
"g. c #9B9316",
"h. c #A39315",
"j. c #A59816",
"k. c #AB9B16",
"l. c #B09E16",
"z. c #B4A217",
"x. c #B9A617",
"c. c #B8A518",
"v. c #9E8E21",
"b. c #9C8E3D",
"n. c #C38612",
"m. c #DD8E1D",
"M. c #D2A313",
"N. c #E4BB17",
"B. c #E6CA15",
"V. c #89874F",
"C. c #9C8E47",
"Z. c #81825F",
"A. c #918C53",
"S. c #9E9357",
"D. c #A19459",
"F. c #848469",
"G. c #85896D",
"H. c #888572",
"J. c #8C837B",
"K. c #9A917A",
"L. c #978E84",
"P. c #988F85",
"I. c #999086",
"U. c #9D948A",
"Y. c #A2998F",
"T. c #A59C93",
"R. c #A89F96",
"E. c #AAA197",
"W. c #ADA39A",
"Q. c #B1A89E",
"!. c #B6ACA3",
"~. c #B8AEA5",
"^. c #BCB2A9",
/* pixels */
"* * % * % * % * * % O % O * * * * s * * * * * * * s * O O O O O O O * * % % % * % % % % % % % % * % * % % % % % * O % O ",
"* * * * * * * * * % O % % * * * * * * * * = * * * * - - O O O O O * % % * % % % % % % % % * * % % * % % % % % % % % O % ",
"* * * % * * * * * % % % * * * * * * * * * * * * * * - - O O O O O % % % % * % * * % % % % % % % * * % % % * % * % O % % ",
"* * * * * * * % * * % % * * * * * * * v - # - @ - ; ; ; + ; ; - ; & & % % % % % % % % * % % % % % % & * % % % % % * % % ",
"* * * * * * * * * * * * * * * * * * . . . . . . X k k k z k k k k k k ; % * % * % % n 8.8.8.8.8.8.&.% % % % % * * % % % ",
"% % * * % * % * * * * * * * * * * * . . . . . . X k k k k k k k k k k ; % % O % % * = 8.8.8.8.8.8.8.% % * % % % % % % % ",
"O u u u d u & $ u d d d d d $ @ - : . . . c C N N D D D D A Z D k k z = O O O O % % * 8.8.8.8.8.8.8.= % * % % * * * * % ",
"% k k k k k k k k k z z z c h . : . . . . C s.s.s.s.s.s.s.s.s.g.k z z d O O O p 8.8.8.8.8.8.5.B.B.B.=.o.o.o.o.o.o.y % % ",
"* k k k k k k k k k k k k k 9 . . . . . . N s.s.s.s.s.s.s.s.s.s.k k k u # O O O 8.8.8.8.8.8.8.B.B.B.n.o.o.o.o.o.o.q % % ",
"* o o o B B B A M Z B Z B B l X . . Z Z Z F s.s.s.s.s.s.p.F F D k k k u O O O % 4.8.8.8.8.8.8.N.B.B.M.o.o.o.o.o.o...% * ",
"* . . . A #.S S S S #.S F F B . . . u.s.s.s.s.s.s.s.s.s.y.k k k k k k t O O O % % % % * * % * w o.o.o.o.o.o.p * % % % % ",
"* . . . B S #.#.#.#.S #.F #.M . . . y.s.s.s.s.s.s.s.s.s.i.k k k k k k u % % % % % % % * % * % 0 o.o.o.o.o.o.e * * * * * ",
"* . . . 8 9 9 k S #.F F F F S N N N u.s.s.s.s.s.s.k.D.D.S.A.A.A.A.A.A.V.2 2 2 , , , : * * % O y o.o.o.o.o.o...* * * % % ",
"* . . . . . . X #.S F F F F F F F F p.s.s.s.s.s.s.l.L.L.L.L.L.P.L.L.L.L.E E E E E E < % % * % O % * * * % * * * * * % % ",
"* . . . . . . . S F F F F F F #.F F p.s.s.s.s.s.s.k.L.L.L.L.L.L.L.L.L.L.E E E E E E 3 % % % % % * O % O % * * * * * * * ",
"* g.g.g.g.g.g.g.k.k.k.p.F F F a.a.p.s.C.L.L.L.L.L.P.L.L.L.E.^.^.^.^.^.^.P.L.L.[ E E E E 5 5 - % % % O % % * * % * % * * ",
"* x.x.x.x.x.x.x.x.x.x.s.S #.S s.s.s.s.C.L.L.L.P.L.L.P.P.L.T.^.^.^.^.^.^.Y.L.L.} E E E E E E : % = $ & & & = = * * * * * ",
"* c.x.c.x.x.x.x.x.x.x.h.#.,.,.d.v.v.v.b.L.L.L.P.P.P.P.P.P.Y.^.^.^.^.^.^.Y.L.L. .E E E E E E : % m 8.8.8.8.8.8.%.% % % O ",
"% N C C y.x.x.x.x.x.x.z.h.L.L.L.L.L.P.L.P.L.P.^.^.^.^.^.^.^.^.^.^.^.^.^.^.^.^.W./ / / E E E E E E H 8.8.8.8.8.3.% % % % ",
"* k z i D x.x.x.x.x.x.x.x.K.L.K.L.L.L.L.L.L.P.~.^.^.^.^.^.^.^.^.^.^.^.^.^.^.^.!./ / / W E E E E E 5 8.8.8.8.8.8.% * % % ",
"% k k k Z x.x.x.x.c.<.1.1.0.{ 0.J.W.R.W.R.W.R.~.^.^.^.^.^.^.^.^.^.^.^.^.^.^.^.^./ / / ! Q Q Q E E E >.>.>.6.8.8.f % * % ",
"% i k k z x C b j.x./ / / / / / 0.^.^.^.^.^.^.^.^.^.^.^.^.^.^.^.^.^.^.^.^.^.^.^./ / / / / / ^ E E E E E E ;.8.8.m % % * ",
"* i k k k k k k g.c./ / / / / / | ^.^.^.^.^.^.^.^.^.^.^.^.^.^.^.^.^.^.^.^.^.^.^.] / / / / / / E E E E E E :.9.8.+.% * % ",
"% u k k k k c / / / / / / L.^.^.^.^.^.^.^.^.^.^.^.^.^.^.^.^.^.^.^.^.^.^.^.U.U.U.[ / / / / / / E E E E E E < % * % % * % ",
"% * % % & k k / / / / / / q.^.^.^.^.^.^.^.^.^.^.^.^.^.^.^.^.^.^.^.^.^.^.^.L.L.L.{ / / / / / / E E E E E E 3 % % % % % % ",
"& & s & $ l l / / / / / / q.^.^.^.^.^.^.^.^.^.^.^.^.^.^.^.^.^.^.^.^.^.^.^.L.L.P.| / / / / / / E E E E E E 6 % % % O % O ",
"m 8.8.2./ / / / / / q.L.P.Y.~.^.^.^.^.^.^.^.^.^.^.^.^.^.^.^.^.^.^.!.L.L.L.] / / / / / / / / / W E E E E E 5 % % O % O O ",
"a 8.8.7./ / / / / / 0.L.P.Y.~.^.^.^.^.^.^.^.^.^.^.^.^.^.^.^.^.^.^.^.L.L.L.] / / / / / / / / / Q E E E E E E % O % % O O ",
"% 8.8.9./ / / | 0.| q.L.L.P.W.W.W.~.^.^.^.^.^.^.^.^.^.^.^.^.!.T.T.T. .) ) ~ K K K L P P P P P J 4 4 4 1 6 6 % % O % % % ",
"% 3.8.8./ / / J.L.L.L.L.P.P.P.L.L.Q.^.^.^.^.^.^.^.^.^.^.^.^.R./ / / E . . . . . . . k k k k k k k k k k d % % % % % % % ",
"% %.8.8./ / / q.L.L.L.L.L.L.L.P.L.W.^.^.^.^.^.^.^.^.^.^.^.^.Q./ / / W . . . . . . . k k k k k k k k k k $ * % % % O % * ",
"% V 9.4.] / / 0.L.L.L.L.L.L.L.L.L.G.` ` ` ' ' ' ' ' ' ` R R R G 1 4 > . . . k C N C D A D D D A A k k k $ O % O O % O O ",
"% % % * ( / / | I.P.L.L.L.L.L.L.L.r.k k k k k k k k k k k k k 9 . . . . . . C s.s.s.s.s.s.s.s.s.s.j k k d % % - O O % O ",
"% % % % ~ ] / | L.P.L.L.P.L.L.L.K.Z.k k k k k k k k k k k l k 9 . . . . . . N s.s.s.s.s.s.s.s.s.s.z k k u O O % % % % % ",
"% % * % O O * Y L.L.L.L.L.L.L.L.L. .o o o N Z Z Z A Z Z B B Z l . . . C Z Z #.s.s.s.s.s.s.a.S D F z k k u % % % * % % % ",
"% % % % % O % v L.L.L.L.L.L.L.L.L.F.. . . A #.S #.S S #.F F #.B . . . u.s.s.s.s.s.s.s.s.s.y.z c k k k k u O % % % % % % ",
"% % % * % % % ; t.G.G.K.P.L.L.L.L.H.. . . Z F F S S F S #.S S M . . . #.s.s.s.s.s.s.s.s.s.u.i k k k k i i % % % % % * % ",
"* % % % * % * & % % % t.L.L._ T T T . . . 8 j j k #.F F S #.#.S N N N u.s.s.s.s.s.s.h.l.k.k.i.i.i.i.i.i.w.u d d * * % % ",
"% * % * % % * % * % * r.L.L.(   . . . . . . . . X S F F #.F #.F #.F F a.s.s.s.s.s.s.l.x.x.x.c.x.x.x.x.x.l.k k k $ % % % ",
"% % % % % * % * % % * U e.e.I . . . . . . . .   . #.#.S S F S F F F F u.s.s.s.s.s.s.l.x.x.x.x.x.x.x.x.x.z.k k k ; * % * ",
"* % * % % * % * * % % % * * @ . . . g.g.g.g.g.g.f.k.k.k.a.F F F a.a.a.s.s.s.s.l.l.l.z.x.x.x.x.x.x.f.F w.w.k k k i u u u ",
"% % % % % % % % % % % * % % @ . . . x.x.x.x.x.x.x.c.c.x.g.F F F s.s.s.s.s.s.s.x.x.x.x.x.x.x.x.x.x.i.z k k k j z k k k k ",
"% % * % % % * * * % * % % * # . . . c.x.x.x.x.x.x.x.x.x.h.F F F s.s.s.s.s.s.s.x.x.x.x.x.x.x.x.x.x.i.k k k z k z k k k k ",
"% % % % % * O * % % % % * % ; j j j x N C y.x.x.x.x.x.c.c.k.k.k.s.s.s.h.l.z.z.c.x.x.x.x.x.x.a.a.p.#.Z A Z Z Z Z C k k k ",
"% % % % % O * % % % % % % % $ k k k k k z D x.x.x.x.x.x.x.x.x.x.h.s.s.h.x.x.x.x.x.x.x.c.x.x.#.#.S F F F S #.F F A k k k ",
"% % O O O O O O O % O % O % + k k k k k z Z x.c.x.x.x.x.x.x.x.x.h.s.s.h.x.x.x.x.x.x.x.c.x.x.#.#.#.S #.S #.S F F S k k k ",
"% O O O O O O O O % % O % O % O - % u k k z b n b j.x.x.x.x.x.x.h.s.s.h.x.x.x.x.x.x.l.u.u.u.#.S S #.#.S S l j j 9 o o o ",
"% % O O O - O O O % % % O % % % % % i k k k k k k g.x.x.x.x.x.x.k.s.s.s.x.x.x.x.x.x.l.#.S #.S #.#.S S #.S k . . . . . . ",
"% % O % % % +.-.3.3.3.-.-.m % % % % i k k k k k z f.c.c.x.x.x.x.h.s.s.s.x.x.x.x.x.x.x.#.S F #.S S #.#.S F k . . . . . . ",
"* % % O O % m 8.8.8.8.8.8.@.% % % % % % % O k k z z x x b x.x.x.y.N x x x.x.x.i.C C C #.F F F F #.S 8 8 9 o . . . + O # ",
"% * % % % % a 8.8.8.8.8.8.3.* % % % % % O % k k k k k k z c.c.x.y.k k k x.x.x.u.k k k S F F F F S F . . . . . .   % % % ",
"% % % V 3.3.3.8.8.8.m.N.N.N.X.X.X.X.X.X.X.% k k k k k k z c.x.x.i.k k k x.x.x.i.k k k #.#.S F F #.F . . . . . . X % % % ",
"% % % g 8.8.8.8.8.8.5.B.B.B.*.o.o.o.o.o.o.y % % % u k k z = = = & + % # b n C x k k k S F F B 8 8 8 . . .   O # O % % % ",
"* % * % 8.8.8.8.8.8.8.B.B.B.n.o.o.o.o.o.o.0 % % % + k k z % - % O % O % i z k k k k k S F F B . . . . . . . * * * % % % ",
"% % * % a f f f f f f $.O.*.O.o.o.o.7 r t r O % % ; k k z - O % % O O % i k k k k k k D F #.Z . . . . . .   * % % % % % ",
"* % % % % % % % % % % w o.o.o.o.o.o.7 O O O % O O O % % % O % O O % % O * & % % % * & = & & & . . . @ % O + % % % * % * ",
"* O % % O * % * O O O 7 o.o.o.o.o.o.w O O % % O % % % * % % % % * % % * % % % % % % % % % % % . . . # * * % % * % * % % ",
"* % % O % * % % O O O O r r t t r t r % % O O % O * % % % * % * % % % % % * % % % * % % O % * . . . # * * % % % % % * % ",
"* O O % % % % * O O O O O O O O O O O % O % % O O * % * % % * % % * % * % % % % % % % O % O * % % O * * * % % * * % % % ",
"* * * * % % O O O % O O O % O % O O % O % % O % % O % O % % % % % % % % * % * * % * % * % % O % % * % * * % O O O % O % "
};
