/* XPM */
static char *c432616ab39949038e1df3e2adf1c5f6k3zgeAvujmVVwCKX[] = {
/* columns rows colors chars-per-pixel */
"64 64 247 2 ",
"   c #010102",
".  c #01010A",
"X  c #090604",
"o  c #161A1D",
"O  c #0C151C",
"+  c #171D25",
"@  c #1C252D",
"#  c #23252D",
"$  c #252D35",
"%  c #2C333A",
"&  c #30323B",
"*  c #1E201D",
"=  c #343A42",
"-  c #37444B",
";  c #41474F",
":  c #5D626C",
">  c #5B6575",
",  c #636B7B",
"<  c #666B7A",
"1  c #696F7A",
"2  c #555964",
"3  c #073DAD",
"4  c #093EB2",
"5  c #093888",
"6  c #1B539D",
"7  c #14489E",
"8  c #254D9D",
"9  c #25539D",
"0  c #35579F",
"q  c #0643AD",
"w  c #0C43AB",
"e  c #0C49AC",
"r  c #1142AB",
"t  c #124AAB",
"y  c #1957A7",
"u  c #0543B4",
"i  c #0A43B2",
"p  c #0C4CB4",
"a  c #0544BB",
"s  c #0A43BA",
"d  c #094BBA",
"f  c #154BB2",
"g  c #0D54B4",
"h  c #0C5AB5",
"j  c #0C55BB",
"k  c #0D5ABC",
"l  c #065ABF",
"z  c #145BB5",
"x  c #125CBB",
"c  c #1657B8",
"v  c #0B51AC",
"b  c #274EA1",
"n  c #2D54A3",
"m  c #2759A6",
"M  c #3356A5",
"N  c #3259A3",
"B  c #385BA6",
"V  c #2759B8",
"C  c #0E61BC",
"Z  c #1D64BC",
"A  c #1764B9",
"S  c #1861AC",
"D  c #2B64A5",
"F  c #3869AB",
"G  c #2164BD",
"H  c #2768B6",
"J  c #3364B7",
"K  c #3675BB",
"L  c #697386",
"P  c #737B89",
"I  c #656D82",
"U  c #4D78B6",
"Y  c #003FC1",
"T  c #034AC5",
"R  c #0346CB",
"E  c #024BCC",
"W  c #0749C6",
"Q  c #0B55C1",
"!  c #0B5BC2",
"~  c #0152CE",
"^  c #025CCC",
"/  c #0B5CCC",
"(  c #0658C3",
")  c #125CC1",
"_  c #1057C3",
"`  c #0346D2",
"'  c #034CD2",
"]  c #094ED1",
"[  c #0154D3",
"{  c #015CD4",
"}  c #0455D9",
"|  c #025DDB",
" . c #095AD7",
".. c #0262CC",
"X. c #0A63CC",
"o. c #0B62C5",
"O. c #1865C5",
"+. c #0263D5",
"@. c #0A64D4",
"#. c #0268D5",
"$. c #0163DC",
"%. c #0B62DB",
"&. c #0269DB",
"*. c #0A69DA",
"=. c #1A6FD3",
"-. c #256CC2",
";. c #2B6EC4",
":. c #256AC7",
">. c #2C73CB",
",. c #2971C6",
"<. c #3374CB",
"1. c #3778C6",
"2. c #3879D1",
"3. c #2C77D2",
"4. c #045EE1",
"5. c #0A5CE2",
"6. c #0262E2",
"7. c #0864E3",
"8. c #0369E1",
"9. c #0868E4",
"0. c #245DC6",
"q. c #4678C8",
"w. c #4D7FC9",
"e. c #788295",
"r. c #7B818F",
"t. c #5485BB",
"y. c #6A88BC",
"u. c #758BA9",
"i. c #3480D9",
"p. c #3D85CD",
"a. c #3D83E2",
"s. c #4984C8",
"d. c #5988C5",
"f. c #5F90C7",
"g. c #4683D4",
"h. c #558FDB",
"j. c #638BC8",
"k. c #6494CC",
"l. c #6895C9",
"z. c #7497CA",
"x. c #6B97D4",
"c. c #7A9CD2",
"v. c #748AC4",
"b. c #7BA4D7",
"n. c #4A91EA",
"m. c #6999E2",
"M. c #69A4E7",
"N. c #73A8EC",
"B. c #69A9F8",
"V. c #73ADFC",
"C. c #7AAEFB",
"Z. c #7CB3FE",
"A. c #7BB6FB",
"S. c #6EB1FB",
"D. c #7FC1FF",
"F. c #86898E",
"G. c #8D9495",
"H. c #9DA4A9",
"J. c #ADAAB2",
"K. c #B2B6B9",
"L. c #A9ABAC",
"P. c #9AA09E",
"I. c #83A5D4",
"U. c #87ABDB",
"Y. c #95B3DE",
"T. c #9AB3DE",
"R. c #98B2D7",
"E. c #8FADD7",
"W. c #B9BDC7",
"Q. c #AFB2C3",
"!. c #87B1EB",
"~. c #9AB8E5",
"^. c #85B7F9",
"/. c #97BCFB",
"(. c #8CADE6",
"). c #A2B8E6",
"_. c #829CC1",
"`. c #BBC6CB",
"'. c #B7C6D3",
"]. c #9EC2E9",
"[. c #98C5FD",
"{. c #90D2FF",
"}. c #A6C5EB",
"|. c #A4CDFF",
" X c #AAC9F4",
".X c #B4CDF4",
"XX c #A4D3FF",
"oX c #ADD8FC",
"OX c #B9D7FB",
"+X c #BDE3FF",
"@X c #B9E7FF",
"#X c #A3E8FF",
"$X c #C7CCD5",
"%X c #D2D5DD",
"&X c #C8CCD3",
"*X c #DBE4DC",
"=X c #CFDAE4",
"-X c #D6DAE9",
";X c #C3DCFE",
":X c #C5DCF9",
">X c #E4DFE6",
",X c #DEE2E5",
"<X c #DDE4EB",
"1X c #DDE7E7",
"2X c #C5E3FF",
"3X c #CBE5FF",
"4X c #CBEAFF",
"5X c #C5E8FF",
"6X c #DCE4F3",
"7X c #D5EBFF",
"8X c #DAEDFF",
"9X c #D6E7F9",
"0X c #CBF8FF",
"qX c #D5F1FF",
"wX c #DCF2FF",
"eX c #DCFEFF",
"rX c #D3FDFF",
"tX c #CDE6ED",
"yX c #E4E5E5",
"uX c #EAE3E5",
"iX c #E3E9E4",
"pX c #EAEBE6",
"aX c #E5E5EA",
"sX c #E9E6EB",
"dX c #E5EBEB",
"fX c #ECECEC",
"gX c #F2EDEC",
"hX c #F6E8E7",
"jX c #ECF2EE",
"kX c #E7F0ED",
"lX c #F1F1EE",
"zX c #E4ECF4",
"xX c #ECEDF2",
"cX c #E4EDFC",
"vX c #ECEEFC",
"bX c #E6E7F5",
"nX c #F1EEF2",
"mX c #EDF2F3",
"MX c #E4F3FF",
"NX c #EBF4FE",
"BX c #E4FCFF",
"VX c #EBFDFF",
"CX c #EEFAF6",
"ZX c #F1F2F3",
"AX c #F2F3FA",
"SX c #F1FCFF",
"DX c #E0E5DF",
/* pixels */
". . X                                 X     X                 X X           .         . .                                     . ",
"      * ; - - - ; ; - - - % & % % % % % = % & $ $ $ $ @ # $ $ # # # # $ $ @ $ % # @ + @ + + * o o * + + + + + O o O O o   X .   ",
"X o K.VXVXBXBXBXVXSXVXBXVXBXVXBXVXVXVXVXMXVXVXVXVXVXVXBXVXVXVXVXSXBXBXBXBXBXBXSXNXNXMXMXVXVXMXMXwXMXMXMXMXwXMXcXMXwXwXwX&X:   X ",
"X &XVXI.U t.d.d.d.d.d.d.j.j.f.k.f.k.j.k.k.h.l.l.l.x.x.x.x.x.x.x.c.c.b.x.z.b.b.c.b.b.b.b.b.I.I.b.U.U.U.U.U.U.U.U.U.!.U.Y.3XSX1 X ",
"1 VXl.y x k ! ( ( Q k ( _ Q _ _ j k j _ ! ! k h k j j j l l ! ! l ( ! ( h x x x j j l ! k j j Q j Q _ j c g j x j ! g z 6 [.VX& ",
"H.eXH ( %.$.$.6.%.%.%.%.7.7.%.%.7.6.4.4.6.$.+.$.$.%.%.%.8.6.8.6.4.9.9.6.%.&.| 6.%.&.6.6.%.5.5.4.5.4.5.%.%.| 4.7.7.%.+.*.x s.VX1 ",
"J.wXH @.9.$.$.$.$.$.+.$.$.4.$.4.6.4.4.6.$.$.+.#.$.6.6.$. .7.4.4.6.9.7.%.$.&.8.%.&.$.$.6.6.4.4.4.6.4.| | +.+.$.| 6.9.6.*.! q.SXF.",
"K.7XH  .$.$.6.$.$.$.+.$.$.6.$.6.| | $.$.$.$.#.$.6.$.| { _ x / /  .^ ! ! +.&.$.6.$.$.$.$.$.| 4.| 4.6.$.$.+.+.$.$.6.$.$.%...2.BXG.",
"K.7XG +.+.$.$.$.$.#.+.+.#.$.| $.$.+.$.$.$.$.6.4.| | $.O.N.[.A.H H A.^.N.O.%.$.%.6.6.6.6.$.$.$.$.$.$.| $.+.#.$.$.$.$.$.6. .2.BXF.",
"K.7X-. .$. .$.| $.$.+.+.+.+.| $.$.+.+.| $.| 6.4.6.| ( q.eXBX0XD F 0XCXeXp.X.%.%.6.6.6.6.$.$.+.| $.$.$.$.$.$.$.6.| 6.$.%.+.<.BXG.",
"K.qX-.+. .+.%.4.4.6.$.$.$.$.$.| +.+.$.$.$.$.| $.| *.h ^.MXMX@XD D 5XwXBXA.h @.*.$.$.$.+.+.$.+.$.| 6.6.6.6.6.6.4.4.| $.+...1.BXG.",
"`.qXZ  .@.+.| | 6.4.| $.| +.| $.$.+.$.$.| $.$.| 6.! H OXNXNX+XD D @XMXNX@XH ! +.$.$.+.#.#.$.| | | 6.6.4.6.6.6.| 6.%.$.@.+.K BXG.",
"W.0XA ..+.$.$.$.6.6.6.6.+.$.$.| | $.| | | | $.$.%.k k.eXvXcX+XD D @XNXcXeXk.o.$.$.$.$.$.$.$.$.| 6.4.$.$.4.4.$.$.$.$.%. . .<.BXG.",
"`.5XZ @.+.#.$.$.$.$.| $.$.+.+.| +.$.$.4.%.| 6.$.| k ~.SXbXNX@XD m oXNXvXVX~.x &.$.$.$.$.$.6.6.4.| $.$.| $.| $.$.+.$.+.@. .<.MXP.",
"`.4XZ  .$.$.#.+.+.+.$.| +.| +.+.+.$.4.$.4.6.6.$.^ ,.7XnXlXVXXXD 6 oXMXxXAX8X,...%.6.6.$.6.$.6.| $.+.+.$.6.6.$.$.$.$.$.+./ <.MXP.",
"&X3XG  .| $.+.+.+.$.$.| $.+.+.| $.$.$.6.| $.6.#.l M.VXgXpXBXoXS D XXVXgXgXVXM.k &.$.$.8.$.$.$.| $.$.+.$.6.$.$.$.8.6.$.+.{ ;.eXP.",
"&X3XO.$.6.$.+.+.$.$.$.| $.$.$.#.$.$.$.$.$.$.%...S XXBXgXgXVXXXy y |.AXgXgXVXXXS ..&.| | $.| $.$.+.| $.6.$.#.$.$.$.$.$.+.^ <.BXP.",
"&X5XA $.%.$.+.+.$.6.$.$.$.$.$.$.$.6.8.$.6.$.$.k U qXMXZXxXNX[.S y [.SXgXgXBX4Xs.o.$.$.| $.8.$.$.$.$.6.6.$.$.$.| $.$.$.$. .,.BXH.",
"&X5XA +.+.$.$.#.$.&.6.6.6.6.6.| 6.| | $.6.6.9._ !.VXzXZXnXVX[.y S [.SXnXxXxXVXb.! 7.%.8.%.$.| $.| 6.6.$.$.$.| $.$.$.$.6. .;.wXH.",
"%X5XS #.#.$.$.$.$.6.$.6.6.6.$.6.%.$.$.$.| $. .Z OXMXxXZXnXSX^.S y ^.SXnXnXNXBXOXO.%.| 8.8.6.$.6.6.4.$.$.$.6.| | +.$.6.6.| ;.MXL.",
"%X2XA #.$.$.6.6.6.6.6.$.$.#.$.$.+.@.@.+.$.&.! h.BXzXZXlXhXVX^.A A ^.SXhXgXZXmXBXg.@.%.6.$.6.6.+.$.$.$.6.$.6.| $.$.$.$.&...,.wXJ.",
"%X2XC $.$.$.6.6.7.6.7.$.+.$.%.$.+.{ $.+.&.@.v /.BXkXfXfXnXVXN.z h N.SXlXgXxXAXBX^.h +.8.6.8.6.$.+.$.$.$.6.| | $.$.8.6.$...-.MXJ.",
"%XOXC $.$.&.&.$.&.$.$.#.+.%.%.6.9.$.8.$.&...K 0XBXSXVXVXSXBXB.z A C.CXSXSXVXVXeX0XH X.8.$.8.$.$.+.$.$.$.6.6.$.6.6.6.6.$.#.H wXJ.",
"%X2XC &.$.&.+.#.@.@.X.X.X.@.%.%.%.*.+.@.#.o.s.[.].~.}.}.}.XXh.A h h.|.}.}.}.}. XXXp.o.*.*.+.+.@.+.@.@.*.+.%.%.%.$.$.$.$.+.G eXK.",
"-X;Xx $.9.+.X.! j A x g c c x h x c x k l h z y 6 y 8 m 9 6 z h C y 6 9 6 y 9 y y z x ( x k h x k C j k ( ( ! / ^ *.+.+.#.H wXK.",
"-X;Xx | $.@.X.B.D.A.Z.Z.^.^.^.A.!.Z.Z.Z.A.A.C.^.C.Z.V.V.C.C.V.V.S.S.C.V.S.V.C.V.V.V.V.B.B.V.N.N.N.N.M.N.M.M.B.B.n.^ *.+.{ G qXK.",
"6XOXO.8.$.@.O.#X0X0XeXeXeXBXVXBXBXVXeXeXrXeXrXeXeXeXBXeXeXeXrXeXeXeXeXrXeXeXBXeXeXeXeXeXBXBXVXVXVXBXVXBXeXeXeXrX{./ @.| %.:.8XW.",
"tXoXx +.9.*.k 2.s.d.d.U '.mXdXcXMX_.t.j.k.t.f.f.f.f.j.j.j.f.f.f.f.k.k.k.l.l.l.l.l.l.l.l.l.y.R.MXvXaXMX'.u.z.z.M.n./  .7.+.-.7XK.",
"tXoXA #.$.+.*.o.C ( ) y Y.VXAXNXeXt.y k k k g z h k _ x h h C ! o.C h A o.! k x x j x ) ) z j.BXvXAXSXI.6 c ) Q { 6.9.6.{ Z rX`.",
"9XoXh *.$.$.$.$.&.8.9.o.A.4X2X4X@Xp.o.*.:.<.<.<.>.>.>.;.K >.*.%.*.@.>.G ,.,.:.>.;.>.:.O.*.! g.rX7X7XrXN._ *.7.9.6.6.6.+.*.Z qXK.",
"<X.Xh #.#.&.$.6.$.+.8...O.,.-.O.-.A ..,.+X7X7X4X4X4X4X4X7X+X3.%.+.a.+X7X4X5X3X3X;X3X9X|.:./ =.3.<.1.i.=.$.6.$.&.$.6.$.+...H qXW.",
"bX.Xx *.$.$.6.6.&.&.&.&.#...#.#.#...o.h.NXAXxXAXmXCXCXmXAXwX3.+.@.2.VXZXmXCXVXmXAXAXAXVXg.o...+...+.^ +.6.$.#.$.$.$.#.&...Z 9X`.",
"xX}.A $.&.$.$.$.&.$.#.#.&.&.$.$.&.X.z [.VXfXnXZXmXmXjXfXvX7X;.@.@.2.wXxXlXlXZXmXfXZXfXNX/.z *.$.+.%.6.$.#.#.#.#.$.6.$.+.+.Z 7XW.",
"zX Xx $.6.$.$.$.$.&.#.#.&.&.6.8.$.X.U 5XNXnXgXnXmXCXjXjXZX7X;.*.+.>.qXmXgXlXxXjXlXlXgXSX5XJ / | | $.4.6.+.+.#.$.$.$.$.$.+.Z 7XW.",
"cX}.h &.$.$.$.$.$.&.*.&.$.&.&.$.$.! b.BXcXnXnXAXZXjXjXjXAX3X:.+.@.,.7XnXgXZXlXZXZXZXZXcXBXf.! %.+.| 4.$.+.+.$.$.4.$.6.$.+.Z 7XW.",
"cX}.C $.$.$.#.$.6.$.+.#.$.$.$.+.%.z oXBXxXxXxXnXZXlXjXjXAX2XZ +.{ -.4XZXxXnXgXjXjXfXAXzXBX}.x | | $.$.| $.$.$.6.| $.$.$.+.c 2X$X",
"cX].h $.+.+.$.$.6.$.| $.$.+.$.+.! 2.eXdXjXxXxXvXnXxXxXxXCX:XZ $.@.G :XAXxXxXZXmXjXfXmXxXmXqX;. .+.+.| { +.| | 4.$.| | +...A 3X&X",
"MX].j %.+.+.+.+.$.6. .| +.+.#.@.h !.VXpXfXjXxXmXfXgXfXxXZXOXA $...G ;XvXxXZXxXgXjXjXfXfXpXVXm.l ^ | +.|  .| | 4.| | +.| { A 2XW.",
"MX].h +.| { +.+.%.4.| %.+.+.$.! H +XMXpXfXfXfXxXgXnXxXxXNX.Xx $.+.z :XxXxXmXxXgXdXjXlXgXgXVX[.y ^ +.| +.| | | | $.| |  .{ A ;X$X",
"8X~.g | | +.{ +.| | | | +.$.| h t.MXcXfXZXfXpXfXgXgXfXxXmX Xx | +.z OXNXzXxXxXxXlXpXgXpXfXxXqXU ! | { | | | | | | | | | ^ z ;X$X",
"MX~.g  .| | | ^ { | | $.| +.$.g ).VXMXmXsXgXfXpXgXfXfXsXVX}.g | { c .XNXxXxXfXmXsXZXpXpXgXzXMXb.g [ | { } | { | | | | | [ z 2X$X",
"cX~.g } { { +.{ +.+.{ { | | ~ J 3XZX1XkXfXfXfXlXfXfXfXfXBX~.j | { g  XNXdXjXpXfXfXgXgXpXmXzXNXOXc [ | | [ [ { | { | | } [ c ;X$X",
"cXU.c } [ | { ^ [ { { { | { d x.NXuXdXdXfXgXgXfXfXfXpXdXBX~.j } } c }.NXdXfXkXpXsXnXgXgXdXkXsXMXw.l [ | [ { +.^ ^ | } | { x ;X&X",
"cX(.p { [ [ { [ ^ ^ +.{ [ / y |.vXyXkXkXfXfXfXfXxXfXfXdXMXU.g 5.} p ~.NXfXfXpXpXfXfXnXfXdXfXiXVX!.e / { [ { [ ^ [ { | } [ c ;X$X",
"MXE.p { [ [ { [ { ^ [ | } _ F 7XbXfXjXiXyXuXfXsXxXfXfXdXMXI.f 5.} p ~.NXdXsXpXpXfXfXfXsXfXfXpXcX;Xm Q } [ [ ~ | } { [ { { c ;X$X",
"cXU.p [ [ ^ } [ ~ [ [ [  .q I.MX<XfXaXiXiXyXdXfXbXsXsX<XNXc.d } } p U.NXsXuXfXsXjXaXfXpXaXdXpXdX8Xj.i [ [ ~ ~ [ | [ [ [ [ j OX%X",
"MXI.v [ ~ [ } [ ~ { [ [ E V .XjXaXdXsXpXpXiXiXdXsXxXdX<XMXz.p [ } p I.MXuXuXsXbXdXiXiXpXsXsXpXaXNX~.f ] [ [ [ E [ [ ~ [ [ g .X%X",
"cXI.p [ ~ ~ [ } [ ~ ~ ~ W q.8X,XdXaXbXyXpXDX1XsXaXsXdXaXMXl.p [ } i I.cXaXpXsXsX1XiXiXpXfXsXaXaXzX;XJ W  .E [ [ } ' [ [ ~ f .X%X",
"cXI.w ~ ~ T ~ [ ~ ~ E / w ^.cXyXyXaXaXsXiXyXyXaXaXiXiX1X8Xj.i ] [ f z.wX1XyXiXiXiXiXsXsXdXaXiXaXaXwXm.s ~ } E ' [ [ [ } [ v .X=X",
"8Xb.e ] ] ~ ~ ^ ~ ~ [ d m ;X6X>XyXsXaXaXiXyXyXyXyXiXiX<XcXw.i ] ] w j.MXaXiX,XyXyXyXaXdXdXiXfXsXyXcX/.t E } [ ] E ~ ' } [ e .X%X",
"cXc.w ~ ] E E [ [ ' ' q t.wX6XsXyXyXaXyXyXyXiXsXsXsXyXaX8XU i ] ] i v.cX6XuXyXuXuXuXsXaX,XiXyXuXyXzX7XF d ' } ' ~ ~ ' [ ' e .X=X",
"8Xc.i ' E E ~ [ ' E ] t ~.6X1X,XyXyXaXyXyXyXyXaXaX>XyX6X7XU p E ` i j.MX-XsXyXaXuXsXsXaXiXDXuXuXuXyXMXz.p ] ' ' ~ ~ [ ' ' t .X=X",
"8Xz.i ] W E ~ E ` ] W J tX1XiXiXyXyXyXsXaXaXaXsXuXaXuX6X7XF d E ] e U MX-XsXaXaXaXaXaXaX,XDXyX>XuXuXkX.Xt T ~ E [ E ~ [ E f  X-X",
"7Xz.q E E ~ T E ] W 3 m.8X%X,X1X-X>X<X-X-X6X<X-X-X>X-X9X2XF a ' ~ q U qX6X<X<XaXaX>X-X<X1XyXyX>X>X>XyX7X1.a ~ E ' ' ~ E ] t  X=X",
"7Xl.q W E E E E W W f |.wX<X6XcXbXbXcXcXcXcXcXzXzXxXcXcX;XJ s ` ` s q.7X8XzXzXcXcXcXvXcXzXkXbXbXvXbXbXMXC.s W E ' ' ~ E ` i }.=X",
"8Xv.w E R E T E ] a 0.^.(.T.R.Y.Y.T.T.Y.~.Y.Y.R.T.~.~.(.^.V 4 ` ` W J /.~.~.T.T.).).~.).~.).).).).).)./.^.W W W ' R E E ' t }.=X",
"bXv.3 R ' R E R ' E a u q r r r q w w w w w w q 4 4 3 3 4 W R ` ` E s i w r r r r r r w w w w 3 q w w i a T T T R R E R E w }.-X",
"bXy.3 R R R T E ~ E E R E R R R ` ` R R R R R R ] ] W W W R ` ` R R E R ` ` ` ' R R R R E E ` ' T T E R R R T R R ' E R T t ).-X",
"9Xv.w T R R R E T E E ' E E R R ` ' R R R R E R Y ] R R Y R R R R R R R E E E E W E ` E R ' R E E E E E R R ` E E Y ' R T 7 ~.6X",
"9XR.5 3 i 3 u 3 q q u s u u u 3 4 4 4 4 3 q q q 4 4 4 i 4 4 4 4 4 4 4 s u u u q u u i s a a u a a u s s 4 s 4 4 d d a u c 9 OX$X",
"F.NXU.B 0 M M B M M B M N N M N N N B M M N m N M M M N N N M M N N N n m n 9 9 n n n b n b n n 8 b b b 8 8 b 8 6 b b b 0 ~.NX1 ",
"X F.8XcX7X7X7X7X7X8X8X9X7X7X7X7X7X8X8XcX8X7X8XwXcX8XqX7XqXqX8X8X8X7X7XqXwX7XqXwX7X7X7X7X8X7X7X7X7X7X9X9X7X8X7X7X3X5X4X;X8XNXF.X ",
"  . & 2 : > > > : : : < > > > , > > , , , > , < < I < I I I I 1 1 I L L L L L P P P P P P P P e.e.e.P e.r.e.e.e.e.u.F.G.P &     ",
".           . .                                 .     . .             . .   . . . . .     .       .   .     . . . .             "
};
