/* XPM */
static char *c6ede3a16eae4dcfcd0e0bb7c341f3bacXnqi9NFpn0bI3yj[] = {
/* columns rows colors chars-per-pixel */
"64 64 174 2 ",
"   c #673721",
".  c #764B2B",
"X  c #8E4A27",
"o  c #854F2B",
"O  c #8F4B28",
"+  c #914B27",
"@  c #944D29",
"#  c #86502E",
"$  c #8B532E",
"%  c #9A542B",
"&  c #9D5A2F",
"*  c #845231",
"=  c #895432",
"-  c #8C5A35",
";  c #995631",
":  c #935B36",
">  c #9F5D33",
",  c #A0572C",
"<  c #A35A2E",
"1  c #A45D31",
"2  c #A95E33",
"3  c #9E6037",
"4  c #9A653D",
"5  c #9F693D",
"6  c #A56335",
"7  c #AB6334",
"8  c #AD6A37",
"9  c #A3643B",
"0  c #AC6738",
"q  c #A46C3E",
"w  c #AD6B3C",
"e  c #B16635",
"r  c #B46A36",
"t  c #B96D36",
"y  c #B46C3A",
"u  c #BA6E3A",
"i  c #BF7037",
"p  c #B7713B",
"a  c #BC733D",
"s  c #C2763D",
"d  c #C8773D",
"f  c #C4793E",
"g  c #CB7B3E",
"h  c #D17E3C",
"j  c #A46A41",
"k  c #A86E40",
"l  c #AC7242",
"z  c #B57342",
"x  c #BD7541",
"c  c #BD7A44",
"v  c #B4774A",
"b  c #B47A49",
"n  c #BE7D49",
"m  c #C17741",
"M  c #C57B42",
"N  c #CB7D43",
"B  c #C57C49",
"V  c #D17F44",
"C  c #D1803F",
"Z  c #C68044",
"A  c #CD8245",
"S  c #C48249",
"D  c #CD8449",
"F  c #CD884C",
"G  c #D38444",
"H  c #D88745",
"J  c #D68946",
"K  c #DB8B46",
"L  c #D28649",
"P  c #D58A4B",
"I  c #DC8D4A",
"U  c #DF9147",
"Y  c #D6904E",
"T  c #DE914C",
"R  c #DA8E51",
"E  c #D79050",
"W  c #DF9651",
"Q  c #DD9351",
"!  c #DE9853",
"~  c #E08D47",
"^  c #E18D47",
"/  c #E08D46",
"(  c #E08D49",
")  c #E28F49",
"_  c #E28D4A",
"`  c #E28F4B",
"'  c #E08F4D",
"]  c #E18E4A",
"[  c #E19047",
"{  c #E19149",
"}  c #E1914A",
"|  c #E0904B",
" . c #E0924A",
".. c #E1934B",
"X. c #E2924B",
"o. c #E4914B",
"O. c #E09449",
"+. c #E2944A",
"@. c #E4944B",
"#. c #E1914C",
"$. c #E0914C",
"%. c #E1924D",
"&. c #E0934D",
"*. c #E1904E",
"=. c #E2914F",
"-. c #E0934F",
";. c #E3934E",
":. c #E2944C",
">. c #E3954D",
",. c #E3974C",
"<. c #E1944E",
"1. c #E3944F",
"2. c #E2954F",
"3. c #E0964F",
"4. c #E3964E",
"5. c #E5974D",
"6. c #E7944E",
"7. c #E4974F",
"8. c #E5974F",
"9. c #E4964E",
"0. c #E2934C",
"q. c #E8944E",
"w. c #E5994D",
"e. c #E6984E",
"r. c #E7994F",
"t. c #E6994E",
"y. c #E99D4F",
"u. c #E8994F",
"i. c #E29350",
"p. c #E19450",
"a. c #E09551",
"s. c #E39650",
"d. c #E09552",
"f. c #E09752",
"g. c #E39753",
"h. c #E49751",
"j. c #E59651",
"k. c #E49552",
"l. c #E49753",
"z. c #E39651",
"x. c #E59850",
"c. c #E79951",
"v. c #E79B50",
"b. c #E59852",
"n. c #E69953",
"m. c #E79D52",
"M. c #E59A56",
"N. c #E79D54",
"B. c #E59953",
"V. c #E99B50",
"C. c #E99B51",
"Z. c #E89A50",
"A. c #E89853",
"S. c #E99D51",
"D. c #E89C50",
"F. c #EA9E52",
"G. c #E89954",
"H. c #E89E55",
"J. c #ED9F55",
"K. c #E99C52",
"L. c #E69D58",
"P. c #E89D59",
"I. c #EBA04F",
"U. c #EBA156",
"Y. c #EBA256",
"T. c #E6A058",
"R. c #E8A058",
"E. c #EBA158",
"W. c #EDA559",
"Q. c #EDA559",
"!. c #F1A557",
"~. c #F0A957",
"^. c #F0A658",
"/. c #F2AB5C",
/* pixels */
"N L l.3.J I f u K I g J G ~ ) 8.8.8.J N s I F.r.L 7 M V I c.~.m...M v A K G H +.C.8.+.3.3.c.R.P P c.Q.F.I N A 1 A ..y.U f W H.3.",
"l.d.D a T i.%.I u t G K H N ) @.I L U I C.r.I M N I I ..I r.3.K F I 8.A a D c P U ..3.I 8.N.l.T D P 8.U.I U I U A m I r.F.U 3.J.",
"P I 3.d.J 3.....U I H J I I G N H K 8.C.I N g K J J U I %.P D H I T I c.A 9 z L s a m L A c.%.T T P F P ..U I K J I g f J r.r.K ",
"F R.l.d.3.3.8.c.U G K K B q J K N %.3.I G ~ K G G U ..L s G G I %.l.D x L G.J A M L J G.L a D c.T T G G s L U ..H G J ) G K @.@.",
"K L M.T 3.3.%...F P M 7 u a a G C.d.%.' I H J d G H t M %.K 3.3.A N Y M.K J T e 7 a I H P c.T Z A d.l.I I N u H I d J G ~ ) %.3.",
"C.8.I T L s s N J o > K ) ..W a x G @.) N H I K s a I ..%.T a A d.d.L L d.a 0 d.%.U N a Q L L W d.L a I %.%.T a t A K J N K ..%.",
"K 8.@.N J I a e 7 g I I I a a G I J e N I I P K ~ ) ) ..8.I %.%.I I N.M D L N x A %.I K u B ! I I %.l.P 3.%.%...I J I I K J a u ",
"I %.d.@.G G A g 8.F.I u e H L ..^.U.%.M q z I H G ..c.r.....3.3.P.D a I Q.F.I g A 7 L ..u.K r B R.c.3.3.3.r.c...H J K A 4 7 P U ",
"K ) I I 8.~ 8.C.8.N s K I I I 8.F.U L L c.A p p S S %...%.' T Q L E L P r.Q.8.U J I f m I r.r.K G f.l.%.3.3...P D G 2 , p K I T ",
"G H ) K @.F.3.G d H I H I K ..%.D L P %.I l.W 9 - J M x a m m c.T T T L L I %.I I ) J I g M I C.u.I I H m s N J 3 : f +.F.I a 7 ",
"%.%.g K %...H J ~ K g I I T f N J J T T T m a l.T s M u m M.D p L d.T U G G N J %...J G J K N H 3.8.G G I m u N G +.y.8.G s J ~ ",
"A f %.l.3...) K G g H K s p K J ..d.I B D l.T H I N < N I L I G.K M D l.d.J K N u K I G G G ~ I ' 3.8.J N ' G ..C.8.G M H I J ~ ",
"f.B F D 6.%.G G ) K g t L %.%.%.Z M I l.I D P F 2 D %.U J A Q L P f.W D M I %.%.' u t N H K g J ) U J l.8.N H @...H H ~ K N J ) ",
"p N J 3.N s I ..L J K U U ..l.I I 8.T I d.F A N A a M 3.I ) f P ! J P T d.A %.%.%.[ K G I T I H G a a N s ..r.%...) I G C G K g ",
"G I Y.Y.3.P B l K ~ G I 3.r.8.%.3.l.c.Y p a U.U...A A 8 f ) 8...a J H.d.d.l.%.l.c...J J ~ A b a r I ..+.Y D M ....G N ) K N u N ",
"K U F.3.L L l.I A u I c %.....%.T f.L L L L 3.U.Y.I I I f a J r.F...K H.c.l.8.%...T P N a 2 ; N K U P a a G I D a I ) J K J ) I ",
"I %.G L P T I d.c.a : L V s s m a I d.T d.P L P %...K ..J I A M J r.F.U +.I N N G K z = 7 G u.8.I 0 a A J 8.Q.F.K B j J K G K %.",
"N M G G T %.d.M a Q d.A A u u P I u A c.U T J L N L %...I A K K G A U u.K g 3.A x u g J r.F.3.M f K K I I F.C...D P d.N u P c Y ",
"H I I 8.i.N Z c.l.H P F % < P L P c.T M A d.d.I J L a G ) K N H K I I 8.8.I N I f J 8.F...N f K K J I I ) T G L I %.I c.I = B G ",
"..3.J s P f.T A J R 1 7 D ..N x I H H l.n.D D J %.U ..f r N C K V G ) ..I P %.I N ) 6.I G K K H g ) I I f Z G K T %.R c f c.I M ",
"3.+.K 3.%.I W R p 7 s B D 3...I e m M.L P T l.A K %.....' N J I ..H G H N M N G 8.c.%.I ) J G g K I a a I H %.l.P B F c.T J Y l.",
"d.+.3.+.f.M.0 < Y H...N N u A ) ..I 7 a L.c.T 8.%.8.c.%.U K K H n D s J I ..d.M F K @.) N G K G s y J ..%.3.f A Y f.P L I I F f.",
"..8.I ! m p B P +.U./.I J K t a P F.F.I s E N.3.%.%.%.c.P H s s 7 p K I I a a G I P s G ) %.J J K U I ..3.J U 8.Y P f.U.c.J N p ",
"a m u x Y U 8.K L P ..U K I ~ U N M I r.u.I I I L N H K F - x f 3.F.I p 7 G G ..Q.Q.T N n c ~ K G ) 8.r.3.3.+.8.C.d.d.r.Y.Y.I A ",
"6 a D y L c.I U J H N J ..I K G K K N N ..u.) G I N a a J J 3.F.8.A s K I I I 8.F.%.D L M.G N a P S %.%.%.3.%.3.%.d.D L 3.F.U I ",
"L A P M.P M D l.d.I G A a J I I g H ) ) J 8.@.K N ' N K ..F.3.G M H K J I ) ....G L I T I 8.d.w - K A M f G x c.%.I U P F L ..U ",
"H P Y L P c.Q A G T 3.I %.s r G d K V H I ' %.d.l.' N J %.%.G J I K g K I U M N G H %.%.d.M a d.d.M N N A c.Y a M d.%.d.G L M N ",
"..I g D m.L L %.l.f A 3...%.I s H ..~ G G I J N s s %.r.8...) K G g J I f u K K T l.Y N A M.d.J I I A A Y P J l.l.Z A T l.I I J ",
"m %.K %.s A R.d.%.3.3.8.c.%...I I H S Q A G I %.3.c B A @.6.G A K K d r G %.%.3.N N P c.I D P d.A W %.%.I N I P L I c.J m J %.%.",
"M r D r.F.%.A N.N.d.3.3.%.c.d.H f H a 6 J I %.A a f H L u M I ..J K J ) ) ..3.I I l.T K i.W Q.I G a a I I I A F E T I T 3.I 8.8.",
"I ) A f P 8.C.U 3.f.L H I U F 4 B r I F.K D 2 A N I F.Q.l.f z j K I G ) 3.c.3.3.3.3.c.U.f.U Q.Q...H G e u I C.8.N J P.3.3.d.%.8.",
"U G J ( N N I u.8.G 8.L u y H K U F.r.I f N I K K %.Q.8.P D Q L a r I n ....%.%.T G.3.c.L F T F.r.K I K J s N d.F.8.K F.c.I %.%.",
"..I g H J K J %.+...N K I P ) c.C.K N N K J I I I ..K L P %.U %.M.x . D A M s N M Q l.I %.I L D %...K ~ H I J f A @.F...I T M a ",
"r A G C G G ) ..%.T C...H A 8...J A ) K G H ..%.J M G G I T d.L a L G.M M N N %.l.m m Q U d.J G N f ' ) ) N J K J G [ @.J g %.J ",
"I f N I I H N I @.K N N K 3.3.%.) ' G G G ) P u N K J 3.d.A M I c.K J I M p A I L i.M.A N I l.T J I p s I J g G K ~ ..3.c.@.M u ",
"..I I J D J ..J U ..8.P P A %.6.K N K K g r a U ..%.I f F d.d.J L i.B P %.%.J u F P D I M.I N N 3.3.%.L r s H K G G ) @.L y 7 f ",
"c.K g G G a K ) ..L a s L I A M H ) I I G ) ....%.3.L T %.I J d.U.I G a c T I U f m F d.P T d.I I 3.%.%.I K J P %.I N 1 @ G ..%.",
"I l S f H C.+.P 7 M N K r.Q.F.L N b A K J J ..c.8.%.3.3.d.U.W A F.Y.8.G A u p I 3.8.s u Q m.d.+.+.3.c.8.I G I K q 6 X a I I T a ",
"g ) K r.c.%.f f I J U K U.r.I L I Q N a A F E %.%.3.%.c.N.m.L D %.U.Q.K K I G s Z r.F.@.G Y N.T l.....T n I r % @ p ..F.U s 6 L ",
"K 8.C...N f K K K ) K ..I G L I T I M.F 4 w J N M M A M.c.I d.I F L T U K I J I G f G 8.F...K Y N a M G D   7 N %.F.r.L a H ..I ",
"@.@.I V I K H G I ..K s A G I T d.P a M F.P N f M W l.a M d.T %.J G N g %...I g K K H N ~ 8.) g I L y 2 7 G ..C.r.H M G I J I I ",
"l.3.) ) H H g I I p s I H %.d.J N P c.I J Y a u P P H l.l.N B T d.U J P p f I I g H J ~ I d.l.6.N N 7 H N H @...H H ~ I N J I %.",
"I @.) N H ~ G t t I %.%.%.s D T n.P L T m a I %.I L P P L T c.P D Z d.T ..G r d G K G N [ ..I D s s A f %.c.%...) ) G G H I N u ",
"p u G I T P H I ) ..%.i.H %.3.I P M.P F L a m P ..I G A Q Y H T l.K P 3.....I G J I %.K G f < g K ..c.A F N 6...H N I J f r M U ",
"Q.L p k B ~ K H ) 8.r.3.3.3.3.N.P a I Q.c.J N s r I ~ r.N m M.m.d.l.%.3.c.8.I J I K n c 1 e J K %.M a M H %.N s J ..P K J I ....",
"r.I L D p e f P D ....3.3.3.M.Y P D I F./.+.U H H a N +.F.8.K c.H.d.%...%.3.P I s u 1 6 U F...A 2 G N I I.!.c.P B l H ~ H J ..c.",
"L L %.T T d.9 # P A f m M P c.I %.T L L I U K I I K K s N +.F.@.~ 3.G M A H P * y N ..F.r.I M V ) K K U Q.8.K L i.T N u P S Y ..",
"J T U 3.Y a B T a u a F M.m x T d.U I L A N I ....H G K J N P 8.@.N I I m u u N I 8.u.K M N K J K ~ U ..J F P T U %.G.M - B G f ",
"3.d.P M A M.T L I m m I L i.c.A N I d.T G K s s I I N H H ) I %.l.+.G G s A H N q.3.K G I K G H ) ) L s L G T %.d.A s P M.L N a ",
"N D Y c.I H T E A I K s A I L I c.P D M %.3.%.J y a N H J N ) ) T P L s p a I l.d.3.[ ) G J g K H t N K I 3.d.A M T c.P P R 7 2 ",
"W 3.K L d.H.P s M T %.I N e E Q L I d.T N %.%.%...J G I %.I G H t r I %.%.Y x x I 6.K N J K G u s ` %.%.I s D M.d.L J Q r & Y %.",
"3.d.H.f.A U.r.H N s a T ) l.s 7 P m.3.3.3.%.r.8...K ) ^ N S a < N I ) P x a G I M u J I P I J K ) ..%.3.J d.T I I d.x a G N x Z ",
"M.Q.W L T N./.r.I G G r M 3.F.8.g A M.l.3.%.%.d.Y Y g s e ; A c.8.I e a G H 3.Q.F.J p q N K H H ..C.8...3.3.l.N.x 6 A U.H.K N A ",
"F.U 3.%.D L %.U K U I K J m A 8.F.+.J Y P N G J T q 5 u J r.m.3.N s K I K U F.C.U A P f.s e A S P ..%...T d.F s I D P 8.Q.F.I J ",
"a d.T I I J A N %.U U J H I H N J 8.r.G K P m u u f K ..F.6.N f J K J U I ) %.G J I d.I c.R $ 3 H N s m a 0 d.%.I T P L K ..I I ",
"d.N M T 3.%.G J s M U U G G H ~ K %.c.@.N L L x I g ) @.I A J K J h I ) I f N G J 3.T T m x c.I x a r r Q P p L l.T T G L N J %.",
"J T c.L D J %.U %.H e f G G H N ' ) ..Y C.L N A G 6.l.8.I I J H g ) I s a I J 3.8.I N L l.T J I c O r P L K l.I M A l.d.J J A u ",
"! I L K c.P m T %.%...A N K ..I N K G s J ) %.f.m F K ....N G K G s r H ..%.%.f D I M.P L I N % p I ' M f T J J 3.d.D N P 3.....",
"G a Q C.T 3.l.3.8.8...I ) K A F I r f K ) T a a A I K s G K %.P J J I ..%.8.J I d.U J W F 8 u f B A 3...I r A f.J P i.l.A I 3...",
"F.8.G I Q.c.3.%.3.8.l.%.g g N 6 f +.F.U p 6 L G U ^.Q.%.A c c I K G I 8.r.%.3.3.3.N.E > 7 c.H.U N N r F I 3.K e m T.l.d.8.%.l.C.",
"N 3.C.8.) G.I L K I ' l l N G +.F.8.A s J I K K r.H.%.L L M.G M a I S 3...3.3.%.W p x D P d.Y.^.I J K u a I r.u.K f W C.3.3.%.%.",
"K M G 8.r.K K T s r s I J %.C.8.H N G ~ H I I I %.G L I %.I 8.d.y - J A N m B r M i.I 3.P L I U I K ..I ) f M I C.F.K I P N N L ",
"H I I I 8...G N 8.H 3.N J @...J H ) J g I ..' M N G J %.T d.M a d.d.M N u 6 m D y J f.I T J L N P %.I I G K K N G %.8.K G T N a ",
"J G I ....%.M.L r u s %.c.3.I I I G g J I N u J J T d.I B A M.8.J P A @ X P L I C.J M F d.d.J H N a K ..K g H ) ) I l.@.J N I + "
};
