/* XPM */
static char *_3095f746f014907eb2ad09263b545d7Ktxpo600V6yylmto[] = {
/* columns rows colors chars-per-pixel */
"64 64 59 1 ",
"  c #28272C",
". c #2B2B2D",
"X c #2E2D31",
"o c #343335",
"O c #3A3637",
"+ c #36353A",
"@ c #38373C",
"# c #35393C",
"$ c #3B3B3C",
"% c #413E3E",
"& c #40403E",
"* c #3D3D41",
"= c #403F43",
"- c #3F4043",
"; c #434245",
": c #494646",
"> c #4A4947",
", c #46454A",
"< c #49474B",
"1 c #4B4B4D",
"2 c #514D4E",
"3 c #53504F",
"4 c #4E4D51",
"5 c #514E53",
"6 c #4F5154",
"7 c #535255",
"8 c #595556",
"9 c #565857",
"0 c #595957",
"q c #565559",
"w c #59565B",
"e c #57595B",
"r c #5B5A5D",
"t c #615D5E",
"y c #5E605F",
"u c #61605E",
"i c #5E5C61",
"p c #615E63",
"a c #5E6164",
"s c #636264",
"d c #696566",
"f c #696967",
"g c #656569",
"h c #69666B",
"j c #66696B",
"k c #6B6A6C",
"l c #716D6E",
"z c #6D6C71",
"x c #716E73",
"c c #737274",
"v c #787677",
"b c #76757A",
"n c #79767B",
"m c #7B7A7C",
"M c #817D7E",
"N c #7E7E82",
"B c #7F8487",
"V c #828183",
"C c #89898B",
/* pixels */
"gcsjgi<wwini4qp188=2z==ww5tpq=>diqjkrq>4s;6wqga7ksfj<i6xigisq*iz",
"iqq7zi46i6a45x5rt8<zptww558pb4iris<q;19g0rg4zagia164e<e;6,sriiii",
"8Vc74raii,4sqwgi5;*w8whppww5<i8d7sq<125f239di4a0e0>riqVk0,igzz66",
"dr5s>*ihXwwq285<8xp5p=ippt=pgso45ii1;7s>tul&8;sarziqqqgg6i4z66wg",
"<<g<w5>7p<1r42857rbiqir6ppzp5w1i5r5<d:mdr7dsuryur4s4rer5i64eiicq",
"<i87t>:dzwrwr77w+qp475i1h==4q81qg=h5pX$f>z07>9>>*1u7ii77isw<qwi>",
"sqi+7hrr84r07q8844w17qpppp7t<q7q<<5r8ct7r>0;rr9orry77sr7*gawggii",
"iwsip;7,hp7qpc7174qq1q8rtp58r;rq55hM%wthr74s79fffz7ks79e7h77Nixs",
"s+706*isi5ri7rrqo;riq4xw7rfrO37$<p5li85qii4g279yu07yc-;2rqo967as",
"67sz>rinizwqi7074;iire2l37:1:r7oq8tt5i8r45zbarzrug3rky>s2s7d>msb",
"oy7k14sN4rn1rysc7w67i77rt0rpr7-rppp;,i<isgqir77gr0u>Oyr9f69><i7r",
">>desqsrws7ir4qiqs1fqttf2rrkag60pwtc,i<igqgi;>rk7ry;f0y2a2gk44;q",
"0ia0,q+rq;<w4iawtps9k>rhr77ssi,r*5<aziqiqi5i,467y0ycyu9s37gg4g4q",
"r07qgjq4sei<m<wi5;1:d299tsr75iri,<*z4iq5gzzq,hisegg0crga7y3rsq;1",
"7gksqww4ss4gsiiimd0r7rr1>hrs7$s7psr5qi5g5z55<za4w0yu291;y07snkar",
"aqq1X,qigjsq4;girrl8rr,887h1;7j6>4e75ziqi66gig71p7u9s7q4rygidq72",
"7sq$s6ragwgizNi4hi>r7s0r4qq7>7ll7ai4sfwqhgiigissq7qc6qr6ziq411$f",
"9k4j-dr7qiiq<gq,iq777kc7s7477k>71-w4,i4i5xig6hqqr0sse6i<7rqiid9r",
"rfi,ieq1qz5ii4<iii6s71ryj;$di1a7ww4g4i;siw6qiig4s4ea<ibzgqi6>rys",
"e;sgi1qqip<gwiazaq1s7u0cs*a60krqsi;asgqi6x,iqgnqizrq<w4igiwis;>X",
"g44r*qq6i5<5=hz=r<,i7s1e4z+qrg4*4q4rhgrii6xiiqg47iiii6iiis5i71a6",
"o4wrww7Xirwqxp5wc6iwksaszqq<74*ir7dqpi<sii,iiigiiggiqqwir;7qcg04",
"h4ewssfnpi4iwwp5ew444r<sj47>rsie#iqegziip6hqzpi*iwisiq4gppq44r-q",
"6;7sg;e7w==45pww4z50d7,a4e77fqmafi4ei6i4x56i855*4<4i4inwws<w5718",
"46ph5p5p5wtpi=hwwqwp=kja6gqe4q6z0$y4riqzig6iqhns825<<=pgqzpi<g5x",
"4oxpppz4h%=<w5=hg*ipii#Baire;iigsr;rk4wwh4qiiiwrp@p7555+hqi=,i@5",
"ix4i8g8s27t<i5xw4sz47hkicsg;44w;4qi6qqiqp,gqiq5gp5l=i7ri<q,i4ii5",
"1<iip5rltp%tpwwpg0d;7q07%fcd4qg07>4*qzw6sijei41<p<55d<p5gii<17gp",
"q5zq<<5pt55tM5h5h;2s8r88gs98>q4s97iq**-giqwi7dkgi71,<155,;8q77r4",
"i;i4cir5<p=O5wxpr10t082p0$d3;4e67s1ziiNii46<1r>5q<7wppphqg45kq<4",
"iq4i6czsdptpw58=dt5%stt5kO77e4r7r0qewiw6iizca7wiw47t:5rtwpgspz0i",
"p<h44iiqt8t=5=phk87st8p4ir142;i<kksq4Nki<i4si1wiqb4<887rpig7w,pt",
"tp5,4ii5q2phw4w5t<8s01srwq<;q4iig6;<iii4i4x45ipp58p5Ots.wpMt;u03",
"pcppsps,i2p5<=w2<>22ttsdq6<wg<iw7iz64awiq<iqiNi4<p5r2:4s,<787g3;",
"1l<<w477pwt5i1t8tth8tMt3q7si4w*441q2qe44p55w4i,4zw5t2%zk8r7;2rr2",
"8pprx,qbipxppVhlt<880d70r7asr44es6i$*<qspppp,ihhwp8to=,17rrck884",
"w=p5l2rsixwi851p88tv7g08m0<7a7g7es41<qacw85pp5=pgz4@124wr1;&>28c",
"p5p8www,w554phd<t88pfr;r00eqii1;<wrr64ks==z55hp8<p<5<p,w;u:>3w=7",
"=:p8=p5=pwpwr77ph<5p20sc7>7aieq7,6<qgq76pwp5wp5p88,wiq4qk*72;88g",
"w5<p822pw55=r7rg8tptrr0ars7sz<i**4i<;74q====wp5q55i5qhpird;1015r",
"b5@5hrs1izki44k6d82ttp2tr3226rginiqia7qziqkk85wpggqiw4*q*r<>dq7<",
"8w+<s:i,rsqq4i6q28tc%2127ib9a7iw1qawnir<Xp8h8hwdq4>a64o*,zqgizrs",
"ihk1qiqhi<iq<qqctt3t8y8rva,r1rirf4qN4<ie,iwgp5p8*+qqx,7ssgiis7sk",
"4<hii44qii;s4gg1h=dlu2r571*ieii4iq*4qg6qiww<8p2twzwi4;sgiipwr;7;",
"6*k7w*5wqp,7;s0c0y12187dqzis51q1qi ri4y7w4qtp52p*44k0snirkpqsr7>",
"gngiwgpwx<717450fyykf7s7sjgjri,s>qbq*qs7ppwpp5dd;41010;izps*>ree",
"icrig5iqw5s5>ag;7ruvs>30i4sw4;r:7ris+1745zi5wlMw:s7g161z5co40k;6",
"rN>tz7wpszs71>3sy>0ysg7ai<iw;16sw*q1rrr<qq=<8l8p11r>f4q5qq73rca0",
";i,<7eiekw*qiqde3y9&g9re726ezrcghpww5w=Mp52wt8tr8v73ck6g>i<4l581",
"w<z<r<gr6wiX45c6fr>y>7>>q7i7sg=d==www=pwwpwxCtft28s71srk*1ga204r",
"44jaiws4i<w6r7737sfs97>g,47zk:l3hp=w=wM55pt5:7t81e770gk4,4iase0i",
"wqizgwiqazi6iqcd7yrf32e6aw*sr12spwptwt5t8wn8d<gq7;s317arsosrsq+w",
"qgiqi,aii<q4r<zisgf92>g>74zw445tdnd=t=t=p=pws0agq7skciis7r;9q@7w",
"eqwasiah6jh4zie1>eayrsg11se5xrq:=pdw=82l5pw=<ds5w<qrqzry1rykirq-",
"i7is7i<ciq<hj-6>1;gyO9iky4g1npp8d==p58h5pp=5>&8t64qiazsy70igwerf",
",i4gwwz6qic<s4<;ryr07y7e1rqqripn=l=w=5d===p8&rt>rzgi747;rke4qmgq",
"q6aa4w<izgiiiiii4sgfa>k6iwiigq<w85twMttweq44k7fdiwia-5iqyrs<ekw4",
"7*i,-q4si*i-jziik7q,<z61swii*i4i=h5%=82tg4i02.r04jsiw$*477i46r,a",
"s;azziiq-eegia46q-4g6qiraqz4i6i485252=lpre$r3kgukriwgijmkq;4iiis",
"7maj4igjaagz*e<<4q*46gaiiw4qiii6h5o8%tp2ir;7o7ff7e,*iqf,17rzgr47",
"je7ee#isg<sp,>1dijiiNgi<swa,4sqik1d*22z8N715a0&y>k6444mke<i<zi4q",
"qiaejiighw4qae-8oiqz=4wriiiiwq;45;s=tp82g41q73erii174sa0eq4c4iii",
"ei1Nii4qzi4g6zl344rdk8qdOr4mq4,o<r>7t2pp6;772g0r7gr74g1gsq4qirbw",
"ieiqww6x6qsrs10f4+7iX7dtw1;sk07s0sxlkwpp7a>ylf0r1eq4144qe*11e6i7"
};
