/* XPM */
static char *_6c8dd237e7f4675dc02de5dbfe31295NzJ6vbCboEAaP4qb[] = {
/* columns rows colors chars-per-pixel */
"64 64 246 2 ",
"   c #010101",
".  c #0B0001",
"X  c #030309",
"o  c #0A0508",
"O  c #130000",
"+  c #1B0000",
"@  c #230000",
"#  c #2C0101",
"$  c #2B0808",
"%  c #350100",
"&  c #3C0201",
"*  c #36090B",
"=  c #280E11",
"-  c #390D11",
";  c #341712",
":  c #382119",
">  c #420301",
",  c #460507",
"<  c #540202",
"1  c #580707",
"2  c #460A10",
"3  c #5A0E14",
"4  c #571817",
"5  c #521211",
"6  c #640F16",
"7  c #781719",
"8  c #6A0C0D",
"9  c #4F221C",
"0  c #521E20",
"q  c #7E1D21",
"w  c #611B23",
"e  c #4A2524",
"r  c #5A2B2C",
"t  c #6A2A29",
"y  c #7A2627",
"u  c #68322F",
"i  c #6B3634",
"p  c #773638",
"a  c #77302C",
"s  c #68251F",
"d  c #7D4D4D",
"f  c #8A1413",
"g  c #97171B",
"h  c #8E0F0E",
"j  c #A80409",
"k  c #B8070C",
"l  c #B40C12",
"z  c #BC0C13",
"x  c #AC1215",
"c  c #A51819",
"v  c #B51215",
"b  c #BC1115",
"n  c #B5141A",
"m  c #BA181A",
"M  c #A40B16",
"N  c #AA211F",
"B  c #AD1C22",
"V  c #BA1B21",
"C  c #85282A",
"Z  c #99282B",
"A  c #9C2E33",
"S  c #87373B",
"D  c #97383B",
"F  c #8E2E30",
"G  c #AA2829",
"H  c #B62727",
"J  c #A52C31",
"K  c #A73639",
"L  c #B93B3B",
"P  c #B72E36",
"I  c #8D1924",
"U  c #CE060B",
"Y  c #C20A0E",
"T  c #CC0C0C",
"R  c #CA050A",
"E  c #D20106",
"W  c #D5040C",
"Q  c #DC030B",
"!  c #D40A0D",
"~  c #DA090E",
"^  c #DC0007",
"/  c #C20C13",
"(  c #CB0B13",
")  c #C50815",
"_  c #D50611",
"`  c #DC0410",
"'  c #D30B14",
"]  c #DC0B11",
"[  c #D50D19",
"{  c #C31315",
"}  c #CB1415",
"|  c #C41319",
" . c #C7181A",
".. c #D41214",
"X. c #DB1214",
"o. c #DB151C",
"O. c #DC1B1C",
"+. c #D51919",
"@. c #E3030C",
"#. c #EC020C",
"$. c #E60409",
"%. c #F2010E",
"&. c #FA020F",
"*. c #E40611",
"=. c #EC0511",
"-. c #E40B13",
";. c #EB0A14",
":. c #ED0E1A",
">. c #F40412",
",. c #FB0413",
"<. c #F20B15",
"1. c #FB0913",
"2. c #FC0519",
"3. c #F40A19",
"4. c #FB0A1A",
"5. c #E41116",
"6. c #E3141A",
"7. c #EC131A",
"8. c #E41A1D",
"9. c #EB181C",
"0. c #F4131C",
"q. c #FD121B",
"w. c #DD211F",
"e. c #E0201F",
"r. c #C91C24",
"t. c #D71B25",
"y. c #E41C23",
"u. c #EC1C22",
"i. c #E11222",
"p. c #F31D23",
"a. c #FA1723",
"s. c #C92828",
"d. c #DD2425",
"f. c #D7272A",
"g. c #D9322D",
"h. c #CA2C33",
"j. c #D72D34",
"k. c #CC3C3C",
"l. c #CA3838",
"z. c #DC3533",
"x. c #D53B36",
"c. c #D43539",
"v. c #D43D3B",
"b. c #DB3D3A",
"n. c #D93735",
"m. c #E32423",
"M. c #ED2224",
"N. c #E32826",
"B. c #E42C2A",
"V. c #EC2B2B",
"C. c #E82629",
"Z. c #F42C2D",
"A. c #F42429",
"S. c #E4332D",
"D. c #EB332E",
"F. c #ED382F",
"G. c #F3342E",
"H. c #E82C33",
"J. c #FA2C31",
"K. c #E43434",
"L. c #EC3632",
"P. c #E53B36",
"I. c #ED3A34",
"U. c #E33D3A",
"Y. c #EC3D3A",
"T. c #E5343A",
"R. c #F43532",
"E. c #F93433",
"W. c #F23A35",
"Q. c #F83A36",
"!. c #F43D39",
"~. c #FC3C3B",
"^. c #BA403F",
"/. c #CC423C",
"(. c #C5423A",
"). c #D6423B",
"_. c #ED413B",
"`. c #EA4439",
"'. c #F4423C",
"]. c #FB423D",
"[. c #F3493E",
"{. c #833E43",
"}. c #B83D42",
"|. c #C93D43",
" X c #D33D42",
".X c #FD3D41",
"XX c #E83E41",
"oX c #9A4646",
"OX c #8E4D4D",
"+X c #AB4D4C",
"@X c #AA484A",
"#X c #BF4243",
"$X c #BD4C49",
"%X c #B44847",
"&X c #A95756",
"*X c #BD5454",
"=X c #B55657",
"-X c #B04E50",
";X c #BC5E62",
":X c #B3706B",
">X c #936F6A",
",X c #C44B4A",
"<X c #C94647",
"1X c #DB4444",
"2X c #D64747",
"3X c #C3514E",
"4X c #C55556",
"5X c #D95655",
"6X c #D24D51",
"7X c #EC4B45",
"8X c #E84746",
"9X c #FD4441",
"0X c #F54B43",
"qX c #FB4C46",
"wX c #F94648",
"eX c #F85148",
"rX c #E84C53",
"tX c #FE4E52",
"yX c #E75756",
"uX c #FA595A",
"iX c #ED5049",
"pX c #DA625D",
"aX c #FA5D62",
"sX c #E25D62",
"dX c #D96868",
"fX c #C96D6A",
"gX c #ED6467",
"hX c #FD6667",
"jX c #E97879",
"kX c #FF7074",
"lX c #CB5A60",
"zX c #F7807C",
"xX c #F27D85",
"cX c #B18991",
"vX c #D69190",
"bX c #F78F91",
"nX c #FD9798",
"mX c #F1918F",
"MX c #F7A49B",
"NX c #EAABAE",
"BX c #FCAAA8",
"VX c #FBB9B7",
"CX c #F1B0AC",
"ZX c #CD9D9E",
"AX c #FEC3BB",
"SX c #FEC7C5",
/* pixels */
"                  X           X   . . o     . O O + @ # % % 2 2 3 3 3 3 6 3 6 3 3 5 4 9 r :       .   o     . .                 ",
"                X     o     o     o o   o   o + r a a C F F {.=X;X;X;X4X4X*X*X*X+X&XfXvXCXZX>Xu $ O .   .   .       X           ",
"o                 X                 o o     + {.oX4XgXv. X1X/./.6X8X1X8X8X8XrXyX2XyXgXdXzXmXBXVXvXp * @ o o                     ",
"o             o X   X   o . o     . . . = e d S %XyXH j.z.`.eX[.T.T.P.S.K.L.K.Y.8X1X X6X5X5XsX5X6X*X:X&Xu O         o           ",
"X             . X X X   . . . O . + + r cXZXvX&XjX,XgXgXuXx.b.g.c.j.g.f.f.s.s.s.s.H H H m m l l z V B }.lXp O         X         ",
"X                       # 9 u t 4 t 6 &XNXVXNXCXdXzXnXsX<XG G g g g f h h f h f f 7 f f h j t.y.i._ | n g -X0 .     X           ",
"X X           . X . . u p }.nXjX4X<X<XJ vXSXNXAXvXzXgX<XI < > % # # # @ # @ $ @ + + @ # < G aXH.R T ( r.V J {.O             o   ",
"                  ; OXNXxX|.|.2Xv.V  .g fXVXSXVXBXzX5XP 6 # O . . . . .   X   o o O + > D gXK.R ( } } { r.G S * .           o . ",
"                . >XVXnXyXV n c.rXrXB ,XVXNXZXSXMX6Xj.B 1 O   .     . . o X   o . + , K aXP.R ! T } { {  .H oX; .               ",
"            . . ; ZX;XP s.k z | V h.}.nXNXOX:XSXjX Xt.M % O .   . . . . . . . O # < J rXd.T ! ~ T  .{ {  .c D $                 ",
"            o . = OXA H / ' d.t. .H 4X:X:X:XAXBXyXT.t.M % O O . . O . O O @ > < g k.T.o.! ^ W W } b b {  .N F @           X     ",
"            . . O 2 F k.r.H.R.t.l /.fXMXSXAXBXzXT.o.[ j 8 3 3 3 5 5 5 3 8 I L k.b.d.~ ^ Q Q Q ! T { z b { H y @   o           X ",
"  .         o     O 5 ^.h.( +.( j G nXVXbXpXyXXXZ.7.7.O.c.k.k.v.v.v.v.n.z.K.B.O.[ ` Q ^ @.Q ^ ~ T / / |  .H y +           X     ",
"    .         X X   + y k.z R j l H 5XpX<XrXK.Z.a.q.<.7.M.m.6.y.u.6.-.7.5.*.$.^ *.^ Q ` Q Q Q W Y / z |  .H a + o           o   ",
"            o o   o . > }.f.d.K.r.h.1XuXuXZ.:.3.3.<.<.<.;.#.=.;.*.=.*.@.$.$.$.$.@.Q W _ W Q ` W Y z / z m H p + .               ",
"              X o   O % Z h.XXtX8XkXhXW.y.;.3.,.,.>.>.>.%.%.>.#.#.=.#.$.%.$.$.$.^ ` ` _ W _ _ _ Y z z z b G p O .               ",
"              X o O @ y 5Xk.8XtXhXtXy.:.=.2.2.2.&.1.%.%.%.%.#.%.#.;.<.1.>.#.@.^ Q Q ` Q W ! W R Y z / k b J p O o               ",
"              . o + q $XyXuXuX~.O.6.;.3.2.2.,.,.&.%.%.%.>.%.%.#.$.$.#.%.%.#.@.^ ^ Q Q Q ` _ R ( } / / / l J p .               o ",
"            X o O w }.j.T.H.8.5.a.4.3.3.2.>.>.,.&.%.&.$.#.$.#.#.#.#.#.#.#.@.$.@.Q Q *.W Q _ U Y / +./ z l J r O                 ",
"            o . @ q  Xi.7.3.a.3.3.,.3.=.<.>.,.>.&.%.%.%.$.#.%.%.%.%.%.#.$.#.@.$.^ Q ` W W ( ) k f. .k z n Z 5 . .               ",
"              O # A t.4.4.q.>.1.a.q.q.;.=.<.>.,.%.%.%.%.$.#.;.#.%.%.;.$.#.#.#.$.Q Q W ` _ ) j s.XX/ z z n Z 2 .                 ",
"  X           . % L i.4.,.4.,.,.4.;.:.:.3.=.%.>.%.%.%.$.$.$.#.#.$.#.$.%.#.$.$.$.` W _ ' ) k l hXf.k | z l Z * .                 ",
"        .     . & K 6.%.1.1.,.,.>.>.;.;.;.:.=.>.%.%.#.#.#.#.<.0.;.#.%.<.#.#.#.@.Q W _ ' ) l 1XaXl z ) l x A - .                 ",
"  X           . & L X.1.1.%.2.,.,.4.<.$.;.:.0.;.$.$.#.#.$.$.$.@.$.$.$.%.#.$.@.@.Q ` _ ) z b xXh.l ) z b x K - .                 ",
"              . > P y.1.>.1.2.2.2.,.,.>.=.;.;.:.7.$.#.#.%.#.$.@.$.$.#.#.@.@.Q Q @.` ( z j uXaXl | z | l g }.-                   ",
"              O & K o.>.>.,.2.2.2.,.,.>.#.=.>.;.5.5.;.$.@.#.#.#.$.$.#.#.#.@.Q Q Q ` ) k H hXr.) ) z z n c K - o                 ",
"              . & }.t.2.2.,.2.2.,.1.>.#.#.>.>.>.$.5.p.9.-.$.$.#.@.#.#.#.#.@.@.~ Q _ ' k tXH.) ( z ) z n c D *                   ",
"              . # Z t.3.2.2.2.,.,.,.>.#.#.#.&.%.-.~ 5.u.p.-.^ $.$.$.$.$.@.Q Q W ! ' k f.wXR [ ) z ) z b c C $                   ",
"                @ f r.3.>.2.,.,.,.,.,.#.#.#.>.#.~ U W ~ 6.9.6.] ~ ~ ~ -.;.5.o.' } Y / .Xo.' Y ( / z z n c q +                   ",
"              . @ 7 t.3.>.2.,.2.,.,.&.%.#.#.>.=.~ U ~ ^ Q ~ X.X.E E W ~ 6.p.u.m.} k Z.V.U ! Y Y / z z x N 7 +                   ",
"            . . + 7 t.3.>.,.,.,.,.&.,.%.%.%.>.*.E E Q @.*.$.~ ~ 5.X.` -.-.` _ _ ) o.J.-.W W W Y | z b x G C O X                 ",
"          . o . @ 7 t.=.4.2.,.&.,.1.%.%.%.%.>.#.~ E Q ;.0.a.p.A.p.9.p.p.0.` W _ _ A.:.E Q Q U ) / ) z x J C O                   ",
"              . + 7 t.>.,.&.&.,.1.&.&.%.%.#.>.*.Q E Q a.0.;.*.=.$.~ @.@.*.*.W W 8.u.~ W W Q ( Y ) / b x J S O                   ",
"              . + q t.=.>.,.,.,.&.%.&.#.#.%.#.=.~ W -.7.*.^ @.@.$.^ @.@.*.^ E ] u.-.W Q ` W ( / z z z x J p O                   ",
"              . + q t.>.<.,.,.>.&.%.%.#.#.#.=.#.~ W *.*.-.@.@.@.$.$.@.#.@.Q E ] ;.W Q Q ` W ( z z z z x A a O                   ",
"              . + C f.=.>.>.,.&.&.&.%.#.#.#.>.*.~ ! ;.;.^ ^ Q Q $.^ $.@.@.Q E ] *.Q Q @.W W ( / z z v c F 4 O                   ",
"              . + C f.=.>.>.,.&.&.&.&.%.%.%.>.=.~ ! ;.;.@.^ *.Q Q $.@.@.Q ` W ~ ;.^ @.Q ` W R { b v b c C 5 .                   ",
"                + y j.=.<.&.&.&.&.&.%.%.#.%.>.@.~ ! @.#.*.;.;.] $.*.-.5.] ` W -.*.*.^ Q Q _ } { b v v c F , .                   ",
"            X . O q j.*.>.>.&.&.&.&.&.%.%.%.%.@...! -.;.@.^ ~ ] -.*.*.;.-.] W 5.*.@.^ Q ` _ t.m b m m G D - .                   ",
"        X     o O y  X` =.>.%.%.%.%.%.%.%.%.=.@.X.! @.;.@.^ Q -.^ $.@.Q Q 6.! ] :.^ @.~ _ R z.g.h.x.x.L oX- .                   ",
"              . O a  X] =.>.>.#.>.%.#.>.#.#.=.@.X.! -.;.^ @.Q ^ @.$.@.@.W 5.! 5.;.^ ~ ! ' O.z.b.b.).x.,X&X*                     ",
"              o . a XX_ =.%.%.&.#.#.>.%.%.>.@.*.! X.5.7.Q @.Q @.@.Q Q ~ ! 8.X.M.;.5.9.m.y.B.b.).b.).k.#X&X$ .                   ",
"            X   . a 1X! =.=.%.%.>.>.>.#.#.=.*.6.C.+.6.p.~ ~ ] -.] X.o.8.N.C.m.C.y.A.R.R.L.P.).x.v.v.k.#Xd + o                   ",
"        X     o . 4 k.' =.=.#.#.&.#.#.#.;.9.A.V.L.N.L.~.M.V.V.V.L.V.D.I.I.S.S.D.V.E.Q.W.!.Y.U.x.v.v./.,Xp O .                 X ",
"          X     . > l.o.=.%.#.#.=.%.;.p.J.E.9XI.B.!.9X~.L.L.S.L.L.K.S.S.g.I.'.P.G.Q.W.I.Y.P.b.x.v./.k.,Xu O .                   ",
"        X   X   . & /.+.@.#.#.$.>.=.-.J..X9X_.g.!.9X].L.N.N.m.N.N.B.I.Y.P.P._.9XQ.!.'.I._.P.b.).v.k./.$Xi .                     ",
"          X       & 2XO.@.=.#.#.#.@.5.E.~.'.g.g.R.u.M.p.9.8.u.6.8.( ..B.].!.W.9X~.~.'._._.P.x.x.v.k.k.3Xi O X               X   ",
"            X   o % ,X+.] =.@.;.3.9.A.].]._.d.D.m.6.8.8.M.M.A.A.M.Z.8.R ..D.Q.9X~.].'._._.U.b.x.v.).k.*Xi . .                   ",
"                  % ,Xg.8.M.Z.Z.~..X9X9X!.B.Z.O.M.Q.~.W.~.~.~.~.~.9X9XD.+.T O.Q.C.D.W.'._.b.x.v.v. Xk.=Xi . .                   ",
"                  # 3XiX'.].].].qXqXwX'.L.V.8.6.E.].'.'.'.].].9X'.'.~.~.Q.C.+.T C.D.B.D._.`.x.).x.).}.=Xu . o               .   ",
"              X   # 3XiX[.eXqXeX0XeX0X_.m.V.X.G.Q.].'.'.'.'.!.'.'._.Y.!.!.].L.N.T +.V.D.f.P.U.x././.<X@X9 . o                   ",
"          X       # 4XyXeXeXqXqXeX0X0XD.m.8.8.~.Q.Q.Q.'.'.'.!..XI._.!.L.L.I.!.].F.+.T e.D.g.z.b./.(.#X@X-                       ",
"                  # *XyXiXeXeX0XeX0XY.d.A.6.E.Q.Q.Q.Q.!.!.!.!.I.I.I.W.W.W.I.I.P.I.I.D.} } g.U.)./.(.#X@X$                       ",
"    .           . # %XyXiX0X[.qX7X0XD.M.y.p.~.Q.~.'.!.W.W.!.W.W.'.I.F.F.W.!.Y.I.'.I.W.!.f. .f.x.).(.$X+X$     X                 ",
"                . # %XyX7X0XqX[.0X9XV.M.6.E.Q.Q.W.W.W.W.I.!.!.I.L.I.W.W.L.K.P.I.I.W.W.K.Y.P.g.n.).(.^.+X$   o                 X ",
"                  # %XyX8X0X[.[.0XL.M.6.Z.~.Q.Q.W.W.W.W.W.W.I.L.L.W.I.I.W.I.W.I.I.I.I.I.P.K.b.).x.(.%XoX$                     o ",
"                  # +X5X[.[.[.[.`.G.O.8.~.Q.'.F.Q.Q.W.F.F.F.F.F.W.I.I.W.L.L.L.L.I.S.F.P.S.z.x.)./.^.-Xt O o X                 . ",
"                  @ +X5X7X`.`.`.`.w.e.R.R.W.F.].R.G.G.G.W.F.F.F.P.L.F.W.W.L.L.I.L.S.S.S.g.x.l./.^.-XOX* O     X               o ",
"                  + y 5X8X0X[.W.D.N.W.Q.W.G.G.G.E.E.G.G.F.F.F.D.D.`.G.S.B.L.K.S.K.K.K.n.x.x.k.|.*X&X; O   o X                   ",
"                o O t 4X8X_.'.Q.R.'.].D.G.Q.E.E.E.G.G.Q.`.P.P.I.P.z.g.S.n.n.x.v.l.k. X<X<X4X4X;XOX* . o       o                 ",
"        X       o . * =X6X2XXX8X9XqXW.F.D.R.Z.R.G.L.K.K.P.).P.x.)./.<X2X6X3X,X%X+X+X&X+XS i 0 # O O o                           ",
"      X           o + w ;X5X2X1X`.`.).`.n.b.`.).).2X5X5X3X,X,X3X*X+XD C 7 t t 4 & # # # O O O X         o                       ",
"          X     X X . O 5 oX=X$X$X3X4X%X%X%X*X=XoXa t t t 2 % # $ @ + + O O O o . . o O .       X o X             o             ",
"          X     X     o O # < < 8 7 y 7 < < > > # + O O O O . . .   o X o X       o     X     X X   o .                 o       "
};
