/* XPM */
static char *_08c81c6af4a4588fbb3fb0807df87f0pBUQqEjOd9PbAZOJ[] = {
/* columns rows colors chars-per-pixel */
"64 64 141 2 ",
"   c #105D00",
".  c #136002",
"X  c #156204",
"o  c #166305",
"O  c #176406",
"+  c #186507",
"@  c #196608",
"#  c #1A6709",
"$  c #1C670A",
"%  c #186809",
"&  c #19690A",
"*  c #1B680A",
"=  c #1A6A0B",
"-  c #1C690B",
";  c #1B6B0C",
":  c #1F680C",
">  c #1D6A0C",
",  c #1E6B0D",
"<  c #1D690F",
"1  c #1B6C0D",
"2  c #1C6C0D",
"3  c #1C6D0E",
"4  c #1D6D0E",
"5  c #1F6C0E",
"6  c #1D6E0F",
"7  c #1E6E0F",
"8  c #1F6B11",
"9  c #1E6F10",
"0  c #1F6F10",
"q  c #1F7011",
"w  c #226B0F",
"e  c #216C0F",
"r  c #206D0F",
"t  c #216E10",
"y  c #236E11",
"u  c #226F11",
"i  c #206C12",
"p  c #246D11",
"a  c #246F12",
"s  c #226E14",
"d  c #236F15",
"f  c #207011",
"g  c #207112",
"h  c #217112",
"j  c #237012",
"k  c #217213",
"l  c #227213",
"z  c #257013",
"x  c #247113",
"c  c #237314",
"v  c #267114",
"b  c #257214",
"n  c #267315",
"m  c #247016",
"M  c #257117",
"N  c #237415",
"B  c #247415",
"V  c #257516",
"C  c #277416",
"Z  c #257617",
"A  c #267617",
"S  c #287115",
"D  c #297216",
"F  c #287316",
"G  c #297417",
"H  c #287517",
"J  c #267218",
"K  c #277319",
"L  c #267718",
"P  c #277718",
"I  c #2B7418",
"U  c #2A7518",
"Y  c #297618",
"T  c #2B7619",
"R  c #2A7719",
"E  c #28741A",
"W  c #29751B",
"Q  c #2C7519",
"!  c #2D761A",
"~  c #2C771A",
"^  c #2B771D",
"/  c #277819",
"(  c #287819",
")  c #28791A",
"_  c #29791A",
"`  c #2B781A",
"'  c #297A1B",
"]  c #2A7A1B",
"[  c #2D781B",
"{  c #2C791B",
"}  c #2A7B1C",
"|  c #2B7B1C",
" . c #2F781C",
".. c #2E791C",
"X. c #2D7A1C",
"o. c #2F7A1D",
"O. c #2E7B1D",
"+. c #2C781E",
"@. c #2D791F",
"#. c #2B7C1D",
"$. c #2C7C1D",
"%. c #2D7D1E",
"&. c #2F7C1E",
"*. c #2D7E1F",
"=. c #2E7E1F",
"-. c #30791D",
";. c #317A1E",
":. c #307B1E",
">. c #327B1F",
",. c #317C1F",
"<. c #307D1F",
"1. c #2F7B21",
"2. c #2E7F20",
"3. c #2F7F20",
"4. c #317E20",
"5. c #327F21",
"6. c #307C22",
"7. c #317D23",
"8. c #347F22",
"9. c #327E24",
"0. c #337F25",
"q. c #2F8021",
"w. c #308021",
"e. c #308122",
"r. c #318122",
"t. c #338022",
"y. c #328223",
"u. c #358023",
"i. c #348123",
"p. c #338324",
"a. c #358224",
"s. c #368325",
"d. c #348026",
"f. c #348425",
"g. c #358526",
"h. c #378426",
"j. c #368627",
"k. c #388527",
"l. c #378728",
"z. c #3A8729",
"x. c #39892A",
/* pixels */
"6 6 l | <.F e w _ t.q._ A _ %.| f q.q.h 2 q.w.; x b b H H H H j e e x w.w.n e ; q.q.q.q.B q.w.q.B # V t.; c t.2 b V C ` C ` C ` ",
"#./ P %.<...Q Q / / c l c _ _ A V V q.l V w.p.q.H H H b n C H w.w.H H w.w.I I ` q.H 2 2 f B q.h q.2 q.t.V q.l.q.Y Y C C C C ` ` ",
"_ l 6 6 l y v Q _ A l 0 ( %._ A q.2 2 q.B q.w.V w.w.w.x x H I w.H x t t j j x H V B f 2 B q.V t V f f c V w.Y q.w.w.C C C ` ` w.",
"q._ A _ ....Q ;._ P l q A %._ A t.2 ; l h 2 2 2 I w.` H q.I I w.w.I H I w.` ` w.q.q.V f H w.q.h q.q.f ; c h ; 2 w.H C C C C G ` ",
"_ / _ 2.i.o.U G A A A 6 6 l c l t.f h q.V 2 h h t j C C C n x t w.H I t.t.w.G G B V V f f V H B V q.h h V V ; 0 j j n C C j j j ",
"q 9 N _ o.F p w A ] _ A l l A A q.2 V w.q.f q.V j j C ` w.I n t t t x I ` C t e h x q.t f x V V c h c q.V q.q.V t j C ` ` G C j ",
"q./ _ 2.t.;...;.] %.] P P %.%._ h 2 q.w.t h H V j n H ` I w.I w.w.I ` t.t.w.w.` V q.q.V V q.w.V h ; q.w.2 h q.0 n C G ` ` w.` ` ",
"%.P q q l v G ..| _ c l P t.%.A 2 f w.t.h h V 2 e t t j x x H H w.H t t t n C [ q.q.B h V w.w.H V ; w.l.2 t q.; e j j j j C ` ` ",
"w.R C C H H a - e A e 5 c v 6 C V h h b V h V q.` w.[ ` H C Y Y w.I H H H C j ; t n t e n z t C V t f f B h B w.` w.w.C C ` ` C ",
"a u 5 a x H R X.( <...( :.G e c w.w.q.V V h h h C Y Y H Y C w.[ t t t t x I w.C w.t.w.I w.G e x p.q.q.B V f f B C I ` C C ` w.` ",
"x x a a x ( :.t.n | ..| i.t.( ..w.V h q.w.V V V C b C C Y ` w.[ a t x t a I w.t.n w.w.I u.w.n w.w.q.B q.w.q.B V j C H x C [ [ ` ",
":.w.w.X.C C H X.v ..G G t.| G ..q.h 2 V q.q.q.V H C b C H Y Y Y w.w.t.w.n a n w.t w.I H t.[ n ` B 2 f B w.H B q.C H H x C ` ` C ",
":.t.i.w.R C x C w.i.R a C a 5 a q.h 0 V V V h t w.` C C C C b t w.t.t.t.I j j n t.p.w.t C t ; t V B h q.H B h 2 w.` w.x n H H t ",
"a x R X.R H C x :.i.R a C c a ( h 0 h V q.V V q.t.` H C H H b t w a G w.w.C n n t.t.I t n n t C h 2 f V q.B B q.w.w.C x C I C t ",
"a x x C ( C c a c X.C a :.| R t.2 h c q.q.h Y t.w.Y C C ` [ Y v t t n n n C n j n I n t w.w.n t.f h V w.H B w.p.G I H x C w.w.t ",
"w.R n x C C a r C :.( C :.R C R q.w.r.t.q.t j w.C v y C [ w.w.w.t.I n n n n j t n w.F n I I t C w.w.t.w.q.t x w.H n x x I u.u.` ",
"+ _ B _ _ B q.4 t.n o.a h.n o.R R C x 5 a R R x w.c 0 0 c c q.r.2 P B P P V q.2 s.y C j z.t I w.B H H t j C H n w.C 2 f h f q.w.",
"4 X.B _ _ _ w.x n X.w.o H X.t.r H H n r n R X.H c c q.r.w.q.c c 0 q.B P q.n q.c H G w.r w.I t.t x H B x j H w.C B B q.w.p.w.f f ",
"B q.0 B _ P w.B R :.w.- R t.a.r C H n r x X.o.R V V c q.V c 0 0 c q.0 V P P w.B ` w.t.e I w.p.j x n H x n I w.w.B B B q.q.B f f ",
"B _ = h P B q.h a.n n X.i.R X.w.H R R n n X.X.H V c c u c 0 0 c l n 2 B V B w.V s.z t w.p.C I t.n w.H x n G C H C B l l f f f B ",
"P B = h P h q.0 w.r - X.w.n u w.H X.R n x H n x c V w.w.q.q.V 0 B V ; c B 0 q.n w.y e ` w.n t [ I w.G n t C C j 2 h q.t.w.q.f t ",
"q.q.2 B q.h q.B x X.a n r a.R n R o.o.H x x x 5 V V q.V B q.w.V P q.0 V q.u q.B j ` j j t p.w.t n w.w.n n n j t V V q.V q.q.q.q.",
"P _ 7 q.q.0 _ P C o.r H r s.R n H w.o.R x n H x q.V c # ; n q.R R q.0 q.q.0 q.n v o.j C e h.w.j I w.I n n n j j w.q.t ; ; f H w.",
"B P 7 X.P 2 B H R r . w.n H # R H o.w.X.H H H H 0 q.w.q.q.w.q.u P P ; V P 2 B u H e X w.j H ; C I w.w.n I w.I x 2 q.w.q.w.q.q.2 ",
"x 5 n X.R n n o.n P q.q.w.w.q.q.5 0 B q.q.l 0 P H x x R w.H v v n u n w.H u v R q.B q.w.w.w.w.q.2 2 h w.q.V x B w.x C I w.I H C ",
"w.R n R R x u x 0 B B B V P c c q.P B x B 5 0 P w.n u x v v n R w.R n R R b u v l j f B B f B f w.q.B B f f h B w.C t t t t x H ",
"w.n 5 n R o.R H B B B B P V B B P B 0 B B B B q.w.n u n v v n H w.u r n [ w.w.H j B B B B j B f q.2 f x B B H w.w.n j j j t x n ",
"n x u H o.w.X.R q.q.P P P R P q.0 4 0 P q.P H q.n n n w.w.H n v v r u n [ w.[ H q.q.q.q.q.B q.B f 2 f V q.q.B q.z n ` t.t.w.x x ",
"n R o.X.R n r 5 B n V B B B B B q.B P q.P B B 0 n n R w.w.T H H C Y [ ` Y n t ; H B V B B B q.V w.B B q.w.B h 2 j x w.p.u.w.n C ",
"r H o.R H n n 5 P P n B B B c c w.P 0 x B B P P R n H R H F H w.t H w.w.H n v r B f V V V l f l t.q.f f B x q.q.H x n H H x n w.",
"5 n n n H w.X.R q.R q.q.q.V V B w.B 2 0 B P q.w.o.R H H H r n H t C H b b [ w.v B q.B q.q.B q.f t.B 2 l x q.w.p.I H H H n t j I ",
"w.o.n r n o.R u P q.q.P P V B 0 w.q.B P q.B 0 2 n n o.w.R r r # w.[ b t b [ w.v B q.w.q.w.V l h f.w.V w.w.q.f f C H I w.I t t t ",
"t t t H w.x t ; q.w.w.w.B q.q.q.w.e w.p.t x t.x x n n n H H n n ; n 0 0 w.H r S q.w.w.q.h V q.V b w.w.H t [ t.t n n H H H H H q.",
"w.I H w.` w.I w.h q.l f h V x 2 n t I t.x H p.I I H C j n n I n V q.c q.w.[ H -.V q.t 0 h q.q.V Y H ` ` n w.t.C I C C x x H H C ",
"w.t e t t t n I V V f t V w.q.2 C n n H H w.w.` w.w.w.n H I w.w.V 4 0 B y S H S V V h 0 V w.q.c ` e t C n C ` n w.` I H n C w.I ",
"t.I H I w.I I w.q.q.V h V w.w.B I I t t n n t x I w.I H n w.I w.r.l V r.H T u.Q q.V c t V w.H c w.; e H n t z t w.I I H C n q.I ",
"w.H H t.t.w.F H f B B h 2 B B h q.I f t I H t x t n n n x x j t q.0 q.r.[ [ a.S c V V 2 0 c b h u.j j w.G n n n x x C C H x x j ",
"e e t w.w.C t e h q.w.B t 2 B h x x C H H H H H t j n w.w.I n n c ; 0 R Y H F y V V q.h f c V b H t z w.G C w.H j B I I w.I C C ",
"t.` ` w.t.w.C w.H q.q.f f q.q.H C e w.t.x H w.t j n n I w.` H w.q.P Y w.a.;.Q >.q.q.q.V V w.w.Y ; e w.` t n ` j n C H w.I w.w.H ",
"w.C t j n n x C w.q.B x q.w.w.H H r w.s.e e ` r t t t t x x H H B P r 5 w.Q r ;.q.V c h V w.w.Y e H u.w.j n ` e e t t t t n n C ",
"-.Q K K K K s < t I t e x x t I H x 2 x V h q.q.w.` ` ` I H I I w.R n n H C t ; e j e e C v r H H t f f B f f q.H w.w.x x n I C ",
"v r 9 s J W +.+.I t.w.C w.H w a t.w.q.V V h 2 2 I H H H H ` ` ` u 0 t u b Y ` [ w.w.w.Y [ S ; r y.w.q.B B f f t C I w.H n w.I w.",
"n a v x d W 1.0.n w.` w.p.t.G w.w.q.h V w.V V V C n n C H w.` w.v r b u v H [ w.C w.` w.w.` v H w.q.B q.w.q.h q.x H H x t w.w.I ",
":.t.<.o.K J K 1.t w.I H w.[ C w.V 2 h q.w.w.V q.H C n C H Y C H w.w.w.w.C C H w.e Q C z w.w.C ` B 2 2 f q.q.B q.C H H x n C w.x ",
"1.0.0.6.+.M d J w.t.I x H j e t V h 2 q.q.V h h w.I C C C C b t [ w.w.w.` v v b w.w.C j C t r e V h h q.C B f f w.G I n n I C t ",
"s J +.1.^ K J M w.t.H t H x t H f t h V V x V V u.` C C H H b e v S H w.` H b v w.u.` j x e r j h f f B q.h B q.w.w.w.z n I C t ",
"s d d K ^ K J d j I n x w.I H w.f h V w.w.V q.w.w.C C C ` w.` C t v v b H H b v z -.C j ` Y C w.f h V w.q.j w.t.G G C n z w.w.j ",
"6.+.J M J K d i t w.H C w.H h H w.w.w.w.q.h h w.` x t z ` w.w.w.w.H v v H C v ; j ` C j ` Y j ` w.w.t.w.q.f j w.C n j j I t.w.w.",
"@ U N / _ A %.6 k.p G c z.u _ ..C C j j j ` C j w.V t t 0 h V r.2 P c P P V q.; a.r n v z.j ` w.q.t I # ` j w.t w.C 2 h h h q.w.",
"9 | x | _ / %.A A G <.+ ....t.e C C j j C ` ` C x x q.t.w.q.c h 0 q.c P q.V w.l [ [ w.# ` C [ r x f Y ; ` C w.z b b q.t.y.q.h h ",
"A #.q P _ _ t.l ( _ <.6 _ <.s.c C C C j C ` w.` c h f q.V h 0 0 c q.c V P V w.B H [ w.r [ u.s.C Y b Y t ` H w.` V b V q.q.h 2 h ",
"A / = l A A #.l i.v v ..s.....i.C ` ` z C ` G C V h f ; 0 h h h c n 2 B V B w.V w.t e ` u.w.w.s.Y Y Y j C I ` C V V h h f h h V ",
"_ P & l / x | l :.u 5 R ..( c :.` ` ` C b b H b 2 V q.w.w.q.h t c V ; c B 0 q.n w.j r H ` C t H Y w.` C j C C j 2 h q.t.w.q.h t ",
"| | 3 P #.N %.A a | u v e s...v Q ` ` C j x x t h q.V c V V q.V P q.0 V q.c q.n v w.v v e p.w.e C w.G ` e C t j V V q.V q.q.q.q.",
"_ | 9 | _ q _ _ c t.c G 5 s.( v ` w.w.Y x b V b q.q.2 # ; h q.q.q.q.0 q.P 0 R n r o.t b e z.w.B C w.C w.e ` t C w.q.h ; ; V H q.",
"N P 9 o._ 3 A A X.a X | u G & G C w.w.Y b H Y Y 2 q.w.q.q.q.b ; n V ; V q.0 V u w.n o w.t b # t C u.` u.t w.j H 2 q.w.q.q.w.H 2 ",
"x 5 x R R x C | ( ( | | | | | | ; ; h q.V b h V b v b ` w.Y b C u t b [ R b n w.q.q.V w.q.q.w.q.; 2 f q.q.V B h Y H C ` w.` n z ",
"i.R C ( R x a a c c B B ( ( ( B q.q.c c h 0 2 t w.H b v j b b [ w.Y n R R b t t l h h B j f B x q.q.B h 2 f f f w.V t j j j j C ",
"w.n 5 H :.:.( C B ( ( ( ( ( ( B V c 0 h c 0 V q.w.C b C v t v ` w.b r n ` w.Y H f B V V V B B B x h f f h B V q.w.C j j x j j C ",
"C a a H | :.X.H ( ( ( ( ( ( ( ( 0 2 f V q.q.V q.j v Y [ w.C j C n v t H [ w.[ Y q.H q.w.q.B q.B 2 f f x q.w.H q.C n I w.w.I n C ",
"n R X.X.R C a 5 H B B c c c c h q.h c q.w.V t ; j b ` u.w.H C ` C Y ` w.Y C t ; V V q.V V V V B q.h V V q.B h 2 n n I t.t.` I ` ",
"r C X.R H C x u _ ( _ ( ( c c h w.q.f h V V Y q.` H Y ` b v H w.e C [ ` H H v y B h h B V V x h w.q.h h h B q.V H B H I C n C w.",
"r x C x H :.| ( q.| q.| | ( ( c w.V 2 t V q.w.w.Y Q ` ` v e r H e b C b C w.w.H H q.H q.q.V V V w.V h 2 B q.w.w.H H n H x t t I ",
"w.w.H 5 c :.R a | | _ ( ( B c c t.w.V V q.V h t j C w.w.C r r r w.w.b e v [ ` j q.V q.V q.V V B w.w.V q.H q.h t x H ` w.w.t e t "
};
