/* XPM */
static char *c870f246c6df41fbcaeb1c3e9e7f7ca7uDirHmJxL1rMN8il[] = {
/* columns rows colors chars-per-pixel */
"64 64 235 2 ",
"   c black",
".  c #010000",
"X  c #000100",
"o  c #010101",
"O  c #020001",
"+  c #000201",
"@  c #030102",
"#  c #010302",
"$  c #020202",
"%  c gray1",
"&  c #040203",
"*  c #020403",
"=  c #050304",
"-  c #030504",
";  c #040404",
":  c gray2",
">  c #060405",
",  c #040605",
"<  c #070506",
"1  c #050706",
"2  c #060606",
"3  c #070707",
"4  c #080607",
"5  c #060807",
"6  c #090708",
"7  c gray3",
"8  c #090909",
"9  c #0A0809",
"0  c #080A09",
"q  c #0B090A",
"w  c #090B0A",
"e  c gray4",
"r  c #0B0B0B",
"t  c #0C0A0B",
"y  c #0B0D0C",
"u  c #0C0C0C",
"i  c gray5",
"p  c #0E0C0D",
"a  c #0F0D0E",
"s  c #0E0E0E",
"d  c gray6",
"f  c #0E100F",
"g  c #0F1110",
"h  c #101010",
"j  c #111111",
"k  c #131112",
"l  c #111312",
"z  c gray7",
"x  c #131313",
"c  c #121413",
"v  c gray8",
"b  c #151515",
"n  c #161415",
"m  c #141615",
"M  c #171516",
"N  c #151716",
"B  c #161616",
"V  c gray9",
"C  c #161817",
"Z  c #191718",
"A  c #171918",
"S  c #181818",
"D  c #191919",
"F  c #1B191A",
"G  c #191B1A",
"H  c gray10",
"J  c #1B1B1B",
"K  c #1A1C1B",
"L  c gray11",
"P  c #1D1D1D",
"I  c #1E1C1D",
"U  c #1D1F1E",
"Y  c #1E1E1E",
"T  c gray12",
"R  c #201E1F",
"E  c #1E201F",
"W  c #1F2120",
"Q  c #202020",
"!  c gray13",
"~  c #232122",
"^  c #222222",
"/  c #232323",
"(  c #242223",
")  c #232524",
"_  c gray14",
"`  c #252525",
"'  c #272526",
"]  c gray15",
"[  c #272727",
"{  c #292728",
"}  c #282828",
"|  c gray16",
" . c #2A2A2A",
".. c gray17",
"X. c #2C2A2B",
"o. c #2C2C2C",
"O. c #2D2D2D",
"+. c #2C2E2D",
"@. c gray18",
"#. c #2F2F2F",
"$. c gray19",
"%. c #313131",
"&. c #303231",
"*. c #333132",
"=. c #313332",
"-. c #323232",
";. c gray20",
":. c #343434",
">. c #353535",
",. c gray21",
"<. c #373737",
"1. c #383637",
"2. c #373938",
"3. c gray22",
"4. c #393939",
"5. c #3A3839",
"6. c #3A3A3A",
"7. c gray23",
"8. c #3B3D3C",
"9. c #3C3C3C",
"0. c gray24",
"q. c #3E3C3D",
"w. c #3D3F3E",
"e. c #3E3E3E",
"r. c #3F3F3F",
"t. c gray25",
"y. c #414141",
"u. c #424041",
"i. c #404241",
"p. c #414342",
"a. c gray26",
"s. c #434343",
"d. c #444444",
"f. c gray27",
"g. c #444645",
"h. c #464646",
"j. c gray28",
"k. c #484848",
"l. c #494949",
"z. c gray29",
"x. c #4B4B4B",
"c. c #4B4D4C",
"v. c #4C4C4C",
"b. c gray30",
"n. c #4C4E4D",
"m. c #4D4F4E",
"M. c #4E4E4E",
"N. c gray31",
"B. c #505050",
"V. c #515151",
"C. c #515352",
"Z. c gray32",
"A. c #535353",
"S. c #535554",
"D. c gray33",
"F. c #555555",
"G. c #565656",
"H. c gray34",
"J. c #595758",
"K. c #585858",
"L. c gray35",
"P. c #5B595A",
"I. c #5A5A5A",
"U. c #5B5B5B",
"Y. c #5A5C5B",
"T. c #5B5D5C",
"R. c gray36",
"E. c #5D5D5D",
"W. c gray37",
"Q. c #5F5F5F",
"!. c #606060",
"~. c gray38",
"^. c #626262",
"/. c gray39",
"(. c #646464",
"). c #656565",
"_. c #676566",
"`. c gray40",
"'. c #676767",
"]. c #686868",
"[. c gray42",
"{. c #6C6A6B",
"}. c #6C6C6C",
"|. c #6D6D6D",
" X c #6E6C6D",
".X c gray43",
"XX c #6F6F6F",
"oX c gray44",
"OX c #717171",
"+X c #727272",
"@X c gray45",
"#X c #747474",
"$X c gray46",
"%X c #767475",
"&X c #767676",
"*X c #777777",
"=X c gray48",
"-X c #7E7C7D",
";X c #838182",
":X c gray52",
">X c #888888",
",X c #8D8D8D",
"<X c gray57",
"1X c #929292",
"2X c #939393",
"3X c gray59",
"4X c #989898",
"5X c gray60",
"6X c #9B9B9B",
"7X c gray61",
"8X c #9D9D9D",
"9X c gray62",
"0X c #A0A0A0",
"qX c #A4A4A4",
"wX c #A5A5A5",
"eX c gray65",
"rX c gray66",
"tX c #A9A9A9",
"yX c #AAAAAA",
"uX c gray68",
"iX c #AEAEAE",
"pX c #AFAFAF",
"aX c gray69",
"sX c #B6B6B6",
"dX c #B9B9B9",
"fX c #BCBCBC",
"gX c gray",
"hX c gray75",
"jX c #C0C0C0",
"kX c #C1C1C1",
"lX c gray76",
"zX c #C8C6C7",
"xX c #C8C8C8",
"cX c #CBC9CA",
"vX c #DBD9DA",
/* pixels */
"                                                                                                                                ",
"                                                                                                                                ",
"                                                                                                                                ",
"                                                                                                                                ",
"                                                                                                                                ",
"                                                                                                                                ",
"                                                                                                                                ",
"                                                                                                                                ",
"                                                                                                                                ",
"                                                                                                                                ",
"                                                                                                                                ",
"                                                                                                                                ",
"                                                                                                                                ",
"                                                                                                                                ",
"                                                                                                                                ",
"                                                                                                                                ",
"      +   +             @     @                                                                                                 ",
"    +   +           @   @     @               @         : :                 :                                                   ",
"  +   +   +         @                           :             :     : : :                                                       ",
"+   +   +                 @ @                             %     :                                                               ",
"  +   +                               : : @ +   : :   %         :     : :   : :                                                 ",
"+   +                   @ @                             % %                                                                     ",
"                                + @     : 7 j j S ] >.3.e.>.o.] Y j u 7       :                                                 ",
"                                B B B Y [ *.e.j.z.j.z.j.s.a.a.j.z.z.z.j.>.Y :                                                   ",
"    +   % 7               5 B Q Y B } e.3.] C S u j u t 7 j 7   : : u Y 3.F.j.^         7 :       :     :           : :         ",
"+   :       : % 7     u C K v u ^ :.3.L u S R C ^ ] } } } ^ Y ] S ^ ] B : j %.b.F.] :       : :                 :         : :   ",
"            7   : 7 d B f f E =.j._ S Y o.e.a.j.V.b.z.b.z.o.^ %.j.e.3.e.e.%.Y 7 ^ z.e.j   :     7     :     :           7       ",
"  @ t t B j j j j u u B E +.w.m.} a.F.b.K.:X6X6X7X7X3X6X<XQ.%.%..X#X=X.X^.K.z.3.j } j.z.o.u               :     7               ",
"@   *.X.F M S ] o.o.&.8.c.S.n.i.9.} %.t.j.e.>.e.j.j.e.e.z.3.o.e.R.^.[..X.X+X[.R.R.%.} z.K.e.] ^ ] } Y u :     :       7     7 + ",
"4 t {.P.R k Y ( } 3.g.n.S.T.T.S.>.} 3.b.F.D.F.^.V.R.K.F.H.k.3.r.} Y ^ %.>.o.>.3.3.o.j S j.b.3.>.>.3.>.%.3.%.} ^ ^ u : +         ",
"  a P.1.4   4   %       + 5     7 : u u 7 u j j S ^ ^ ] [ ] [ #.} ^ o.V.`.`.`.`.[.R.`.`.F.F.R.K.z.3.%.] Y ] %.X.>.3.o.( Y u   u ",
"@ ( *.  > 4 4 : : : u C K K C C 7   :     7 :           : :           :     7 7 u S B S } %.>.a.b.V.+X+Xa.e.b.3.} ] B k.7X,X%.  ",
"Y >.: u 7 y @ :   7 u 7 7 7 u 7 7 @ u   : 7 : 7 : : : % % % % % : : : : 7 7 :                 :   y 5 E c E B y 5 u a ( _.vXcXR ",
"^ B 7 u B S j 7 :   : u %.3.o.j c 7     j       @ % : : : : 7 7 : :   : :     : 7 7 : 7 7 : : : 7 y 0   + : Y 3.$.]   a @ q.zX X",
"S   y @ : : : :   7 B B.H.tXe.z.j 7 7   % + u 7 7 7 7 5 : : %   : :     :   : :                 +     5 c S.F.7XK.`.' @ ( ' 5.%X",
"B   u : @ : y u 7 7 z.3.Y pX} >..Xu : % % u   7 % : 7 u j j k B B B S Y Y Y Y Y Y S S Y Y S S Y A   - 5 a.2.^ pXY >.-XB 4 R S 5.",
"S 7 :   7 : :   : 7 >XlX7XaXsX6X+XM j v o.9.o.3.8.3.3.3.>.$.o.} o.} o.o.o.%.o.%.%.%.>.%.%.o.o.%.) c y + =X4X0X6XpXeX2X] t t t q.",
"B Y u B B B 7 7   } R.3.7XsXgXo.%.^ 5   v v d u d j v S S F S K Y Y Y S B S Y Y S S Y ^ ^ ^ ] ] E f + C m.%.qXeXrX%.b.} t   { ;X",
"  :   u 7 u u j F 7 #X] <XtXfXF.F./   7 Y u k v j d d d u u u u 7 u 7 7 7 u j j j B S S Y S Y Y E Q u 7 V.^ rXlXlXe.#X^ : 7 V.V.",
":         : :     K ] 7XdXu t.lXt.  4 Y j u S u S B B j j d a a j B Y ^ ] ^ ^ ] ] ] ] ] ^ Y S Y B u   : o.6XtX7 ^.xXb.S F d k 4 ",
"                : 7 j } K.*XR.#.7 7 :                                                           %       d o.D..XXX8.j 7 u %   % ",
"                        7 B u   5 : : @                                                             @ % : 7 j M k       :       ",
"                    % :   : : 7                                                                   @   @ : : %       : % +       ",
"                        :                                                                       4 @       % % % : :       + - + ",
"                : : :                 +                                                         @ @                     + + + + ",
"                          : :       @   +                                                           @ @ @ @ @ % +   + 5 + + +   ",
"                        % %                                                                       @     @           +     +   5 ",
"                              7               @                                                   @   @ @ %     + % +   + + +   ",
"                                                                                                                                ",
"                                                                                                                                ",
"                                                                                                                                ",
"                                                                                                                                ",
"                                                                                                                                ",
"                                                                                                                                ",
"                                                                                                                                ",
"                                                                                                                                ",
"                                                                                                                                ",
"                                                                                                                                ",
"                                                                                                                                ",
"                                                                                                                                ",
"                                                                                                                                ",
"                                                                                                                                ",
"                                                                                                                                ",
"                                                                                                                                "
};
