/* XPM */
static char *a56c510d6a8449d1ce652e6c414a45a1flPr3yUs2dcGfSVJ[] = {
/* columns rows colors chars-per-pixel */
"64 64 242 2 ",
"   c #352727",
".  c #362E35",
"X  c #3D3436",
"o  c #2D282C",
"O  c #1F1A1B",
"+  c #472A28",
"@  c #552F2B",
"#  c #4C3534",
"$  c #4C3C3B",
"%  c #473738",
"&  c #533534",
"*  c #5C3534",
"=  c #573936",
"-  c #543C3B",
";  c #5B3D3B",
":  c #5A3937",
">  c #49312E",
",  c #653634",
"<  c #653B36",
"1  c #6B3B36",
"2  c #633D3C",
"3  c #6C3D3C",
"4  c #683735",
"5  c #733D3B",
"6  c #7C3C36",
"7  c #6D362F",
"8  c #55433E",
"9  c #5C423D",
"0  c #4A403F",
"q  c #64423D",
"w  c #6B423D",
"e  c #66483E",
"r  c #74423D",
"t  c #7B433D",
"y  c #79493F",
"u  c #473C42",
"i  c #5C3F42",
"p  c #543E43",
"a  c #673F43",
"s  c #773F41",
"d  c #554443",
"f  c #5C4443",
"g  c #5B4B44",
"h  c #5C4C4C",
"j  c #59464A",
"k  c #5C5257",
"l  c #544949",
"z  c #644343",
"x  c #6B4444",
"c  c #634A44",
"v  c #6C4A45",
"b  c #64454A",
"n  c #6D4648",
"m  c #644B4B",
"M  c #6C4B4B",
"N  c #744443",
"B  c #7B4543",
"V  c #734A46",
"C  c #7B4A45",
"Z  c #744649",
"A  c #744B4C",
"S  c #7C4C4B",
"D  c #7A464A",
"F  c #64534D",
"G  c #6B534D",
"H  c #6E564B",
"J  c #73524C",
"K  c #7C524E",
"L  c #785246",
"P  c #644B52",
"I  c #6D4D52",
"U  c #734D51",
"Y  c #7B4E51",
"T  c #645553",
"R  c #6B5353",
"E  c #6D5B55",
"W  c #6C5C5B",
"Q  c #68565A",
"!  c #745254",
"~  c #7C5353",
"^  c #735B54",
"/  c #74545A",
"(  c #7C555A",
")  c #735D5A",
"_  c #7C5A5B",
"`  c #7B5955",
"'  c #6E625B",
"]  c #74635C",
"[  c #7A655C",
"{  c #796559",
"}  c #695D62",
"|  c #7B5D63",
" . c #755D61",
".. c #756362",
"X. c #7B6462",
"o. c #7B6B63",
"O. c #7B6B6C",
"+. c #756967",
"@. c #7F716B",
"#. c #796B72",
"$. c #776A69",
"%. c #813E39",
"&. c #83443C",
"*. c #87423A",
"=. c #95483D",
"-. c #834643",
";. c #844A45",
":. c #8C4C45",
">. c #834D4B",
",. c #8B4E49",
"<. c #894441",
"1. c #924D44",
"2. c #954D47",
"3. c #8B5047",
"4. c #83514D",
"5. c #8C524D",
"6. c #89574B",
"7. c #925246",
"8. c #93544C",
"9. c #9B544C",
"0. c #9B594E",
"q. c #9A5347",
"w. c #834F52",
"e. c #894E50",
"r. c #835453",
"t. c #8B5552",
"y. c #855A56",
"u. c #8C5955",
"i. c #835659",
"p. c #8A5659",
"a. c #845B5C",
"s. c #8B5B5B",
"d. c #925652",
"f. c #945A55",
"g. c #9B5B54",
"h. c #935C5A",
"j. c #9A5E5A",
"k. c #9B5752",
"l. c #A35A4E",
"z. c #A2534B",
"x. c #A35D53",
"c. c #AB5D51",
"v. c #B15F53",
"b. c #83625D",
"n. c #8C615C",
"m. c #846A5E",
"M. c #94625D",
"N. c #9B615C",
"B. c #986656",
"V. c #A3625A",
"C. c #A96258",
"Z. c #B86253",
"A. c #8C5E61",
"S. c #865D63",
"D. c #965F60",
"F. c #846363",
"G. c #8B6363",
"H. c #856C65",
"J. c #836B6B",
"K. c #8B6B6B",
"L. c #896967",
"P. c #946464",
"I. c #9C6462",
"U. c #996966",
"Y. c #946D6B",
"T. c #966B67",
"R. c #84736A",
"E. c #8A746C",
"W. c #86766A",
"Q. c #96746D",
"!. c #886F71",
"~. c #8B7473",
"^. c #867971",
"/. c #8C7B74",
"(. c #8C7C7B",
"). c #867575",
"_. c #937573",
"`. c #937A74",
"'. c #937D7B",
"]. c #9C7C7A",
"[. c #9A7775",
"{. c #A57772",
"}. c #8F8278",
"|. c #95847C",
" X c #9B847D",
".X c #9B8A7E",
"XX c #938377",
"oX c #A4837C",
"OX c #A6867B",
"+X c #967E82",
"@X c #948483",
"#X c #9B8483",
"$X c #9C8A84",
"%X c #9D8D8A",
"&X c #968A89",
"*X c #9A9595",
"=X c #978887",
"-X c #A28483",
";X c #A48B85",
":X c #AB8B84",
">X c #A38D8A",
",X c #AA8D8A",
"<X c #AE8780",
"1X c #A39185",
"2X c #A4938B",
"3X c #AA938C",
"4X c #AB998E",
"5X c #A99285",
"6X c #B2948C",
"7X c #B09A8F",
"8X c #A49492",
"9X c #AB9692",
"0X c #AC9B94",
"qX c #AD9D9A",
"wX c #A69995",
"eX c #B29D95",
"rX c #B29E99",
"tX c #BB9F99",
"yX c #A28F90",
"uX c #B4A39C",
"iX c #BAA59D",
"pX c #BBA99E",
"aX c #B6A599",
"sX c #AE9FA1",
"dX c #B6A9A3",
"fX c #BCABA3",
"gX c #BCACA9",
"hX c #B7A6A1",
"jX c #BEB1AB",
"kX c #B4A7A6",
"lX c #C1ADA5",
"zX c #C3B2A6",
"xX c #C3B2AB",
"cX c #C9B6AD",
"vX c #C5B6B1",
"bX c #CABBB5",
"nX c #CBBAB4",
"mX c #D0BDB6",
"MX c #C0A89E",
"NX c #D2C2BB",
"BX c #CFC0BD",
"VX c #D8C8C3",
/* pixels */
"lX9X;X'.$.J.+X#.&XwX>X=X%X#XiX>X X X2X9X>X+X X#X@X!.'.$XeXa.Y.`.%X@X@XqX%X=X,X-X>XyXxXsXwXyX&X+X+X+X+XyXyX>X0XwX9X#X#X#X+X>XsXhX",
"r.U J.F.P.A.s.a.U a.p.i.p.P #XF.~ ~ a.~ U ~ _ _ ( M ! b.$XD A K >.A A U i.~ p.| P . qX( w.e.s Y D.p.D.w.D.i.'.P n S Z A Y Y U D ",
"a.a.^._ P.U.I.P.p.P.D.D.h.S.'.~.G.G.! ` U ` i.i.` ! ! ^ 8X,.r.~ p.r.r.r.p.i.Y ( i.U hXw.w.w.s s A.w.p.p.x.w.#XP Y i.p.p.A.A.S.i.",
"A.s.E._ u.u.~ i.p.A.P.D.p.( './ | G.s.y.P.s.G.A.~ a.i._ $X8.>.u.r.Y i.s.i.w.a.w.~ M hXp.w.s D -.e.d.D.d.d.a #Xb r.Y i.i.p.G.p.p.",
"x # E { v g u T m P T m b p ~.m M A I ~ ! ! A V z A A c o.2 ; w 9 z i ; ; # - z d f 0Xm R E G J a Z ! K v J 2X- : 2 z 9 z - Z N ",
"0XfXNXnXdXhXiXuXdXbXnXvXmXlXNXiX/.2X1X|.W.E..X$X X XW.3XcXiX2X5X2X3XuXdXfXxXjXxXvXbXmXbXnXnXBXbXfXeXhXiXxXnXVXvXgXdXiXiXrXgXuX9X",
"P.G.G.T.b.t.a.G.R &X/ A b i._ A 6.K 4.r.V K Y.Y.U.u.C I r.u.S b n V K ) (.I } m ! s.s.y.s.u.u.b.rX .~ U >.u.F.G._ u.y.t.6.S P.Q.",
"f.g.g.f.g.x.9.1.>.:XR V C K A S :.3.3.7.8.0.t.5.d.5.S 3.4.f.>.C B B B p ~.b ~ ~ S ,.9.3.9.x.g.3.'.b S h.h.f.f.Y t.d.t.>.8.5.5.f.",
"C.g.x.V.C.c.c.9.w.Y.u a A S A u.g.t.d.8.7.8.5.5.-.D 8.2.,.>.S V ;.B r p E.M ` ~ V C &.:.8.3.7.7.].- u.t.u.r.y.S 3.4.C 4.h.f.f.N.",
"K r.0.8.3.f.j.B.>._ X n v S >.w.r.S 4.f.8.5.3.3.5.>.>.,.5.>.M n b 2 * % (.i x A B :.q.7.;.>.q.t J.v x >.>.Z b n f.r.y.s.4.! g.3.",
"[ f c H e 9 v F ^ o.`.G 8 e V c H o.H.E.E.E.~.W.o.X.[ [ ^ o.R.W.o.E ^ J.0XXX|./.W./.H.@.~.^..X^.wX9XX...' o.o.] ^ [ o.[ [ o.] H ",
"#X/.%X1XF.` ! _ F.K.Q.G.` L.E.2X$XY.G.G.K.s.( a.r.` ! _ 2XA.f.T.T.X.S.].6X3X,X:X-X#X8XdX[.[.[.K.K.-XJ.).#X#XjX8X!... . .K.| ).'.",
"( / J.X.w.t.8.5.4.t.6.f.f.f.` 5XE.K 3.f.B.N.C.B.M.y.f.h. X3 k.g.>.y C :.g.7.8.3.>.K ).%XS t.>.t.w.N Z C x n | F./ ( a.i.p.t.a.p.",
"a.S.X.K.u.5.4.t.5.d.u.f.V.g.L.;X_.w N 3.x.g.V.8.u.u.I.y. X:.x.f.f.4.8.j.g.M.f.t.6.4.%X^.n >.,.C ;.d.5.N S ;.! ~./ a.( i.s.A.a.i.",
"( | !.o.>.3.w < N 5.K d.d.g.y.OX/.V v v 4.d.8.g.u.~ b G `.m N r.f.u.u.N.t.5.f.u.u.r.&XO.s -.,.C w y Z Z C -.) ] a._ ` ! r.a.( i.",
"u d @.$Xm E X.`.X.m 9 8 9 c E 1X$XT Q E E ] E E m.] E T 4X2XW.K.E ] ] ] { b.^ H G T 2X}.8 9 - 8 8 9 8 - f % l d 0 d 0 8 - d $ g ",
"9X0X4XqXpXvXgXgXgXzX9XJ. .| ].+X{.Q.L.Y.Q.G.P.P.U.Y.! F.| G.L.Q.K.'.K.'.sX8X#X~.~.'.@X,X,X X)././.0XvXvXxXxXbXxXfXqXaXfXxXhXdX@X",
"C r r S S V C r.A >XJ./ ( a.j.t.e.,.k.k.k.d.8.0.x.l.= -.d.N.f.g.x.C.N.S $.r C V Z S B ;.Z n V A _.8Xu J c v n C v S V 4.4.z 9 C ",
";.L V S A ~ K 4.S >XI | S.M.I.p.d.d.x.x.C.l.c.v.Z.v.3 >.f.f.d.g.d.g.V.A @XN >.t :.>.r.S C t.5.7.K %Xb 3.5.5.5.:.3.S 0.8.:.w :.7.",
"4.8.5.K K ~ K N N #XI S.A.I.V.j.k.e.d.:.1.3.:.0.x.l.2 -.g.j.u.u.-.C 6.n O.t &.:.,.3.-.C 5.8.f.5.r #X>.8.5.6.4.5.8.9.:.;.7.r V K ",
"3.5.:.&.&.y C r > ,X .P c m c z 2 ; z q v q c w V w 9 e V J ` ^ c 9 8 # F = = q 2 r < < ; w c c 9 XXz w 2 & z 3 w w w 3 V r 3.7.",
"E.W.o.o.] ] E ^ '.jXqX9X-X#X>X4X2X2XdXhXuXuX8XqX8X0XaX2X}.4X;XJ.+X%X%X8XdXkX0X8X%X|.0XiXuX8X2X}.(.uXXX|.@X$X2X.X2X|.uXhXpX1XW.W.",
"Q.Q.>XK.s B B :.2.>.z.;.t B ) :XG m Q P R / ^ I ! A ! `  X! B >.-.B Z r B <.<.6 t 5 >X .r.S >.>.>.>.:.;.-.B &X~.~.Y.L.K.a.a.G.G.",
"f.g.T.Y.<.9.9.:.k.9.k.g.x.;.A gXm b r.~ ~ U U ` r.r.r.r.].N 2.k.9.9.9.-.t -.1.=.%.7 #XC 8.8.9.9.N.0.g.5.N.5.'.~ P.u.6.u.n.u.f.f.",
"7.8.y.K.<.2.9.x.9.9.9.9.z.q.r.gXS V ~ h.u.4.r.u.t.f.f.t.E.B <.:.z.2.,.,.,.-.B %.&.6 E.& :.t.d.d.u.8.d.t.g.3.).~ s.s.~ 4.u.t.u.3.",
"j.u.C `.6 6 -.<.6 5 %.<.<.<.r.fXq b S 4.b.B.u.v V K A f `.J , 5 1 , 4 < 5 1 4 , 4 7 ! g 5 5 x q v 2 3 x 3 2 +.p ~ r :.7.7.f.0.f.",
"F E ] XXb.m.^ H.[ J.| |.&X|.rXgX|.H.W./.E.R.^.XXXXo.`.1XzXNXzX0X}.XX}.^.XX1X.X.X2X2X8X2X^.2X2X2X3X/.@.}..XXX}.' E o.[ H b c G E ",
"k k 2X9X#XE.f ..#.9XP ( U w.S t.~ a.K S S S v n / ! K a.G.Z ~ w.Z A x I jX%Xj h / !.+X%X'.J.a.| } fX&X&X%X&X+X@X}.(.'.@X#.$.#.+.",
"n ` R b b c f m P @Xn w.S D D ;.5.S A w.w.,.:.:.>.B :.:.;.3.;.5.6.8.3.- sX' p 2 x Y A A b S V M Q @.j d f b V A x V v A b ; i f ",
"S A S K 3.0.d.K p '.U a S e.S r.( P.U.U.A.s.u.0.l.c.V.x.0.g.g.g.j.V.u.% *XG t s :.C I A j z x b k T r Z N x V A K S ;.S C x V x ",
"N :.&.3.4.-.>.3.8 /.n n Z a n Z r.~ U n a C t :.C t r t C 3.9.8.M c % o wX! 3 s >.S S n A Z z 9 k h < C x x n C 6.4.C S V C :.-.",
"H.[ T H g F ] ' H.pX2X/.R.X.E ) F H { m.[ m.H.m.H.{ G J r w L ^ ^.}.^.wXdXR.E ) v F E ^ T F E h ^.@Xo.o.^.W.R.o.^./.XX}.R.o.o.H.",
"5X0XfX;X^.XX X#X[.~.X.J.~.'.#X^.|. X}.^.XX.X%X;X.X X.XaXQ.Q.OX<XOX6X3X6X6X6X6X,X>XeXrX$X3XdXfXaX7X$X@X>XaXhXfX-X X:XOXOX6XOXOXeX",
"%.&.$Xb Z S A r.>.w.S.| ( ( $Xi V A - a n = m A g _ ] iX4.r &.5.N.M.h.j.j.4.u.u.~ K.[.r >.~ Y ~ 4.r./ i.M J.`.1 S ,.:.;.&.3.:.%.",
"*.r #X= Y u.D.y.s.U i.S.| / iXG -.S C A S 2 = A A ~ M iX>.f.f.j.u.K 4.I.h.t.h.h.h.Y.Y.>.S A N 3 N x z a - R Q.V 8.3.8.z.&.*.*.=.",
"*.7 2Xa n Z A r.p.( | / n P $XH.S S B 4.n m J ~ ` a.m tXt 4.C V.f.r.;.u.5.B >.r.r.G.H.D Z -.S x z z 2 z M J.E.C C B q.<.=.*.*.*.",
"> d 9X' j % +     O O X % o F 9   # 8 % 8 d d f - % $ iXX.z n z H W ..^ ) _ v x x Q ]   % d T d p j h h l #.#Xl g c - 9 8 # 9 # ",
"zXmXVXbXlXfXgXfXaX[.Q.`.'.|.3X/.Q.XX1X7X;X1X;X5XeX.XaX0XqX9X$X#X-XoX_.@XjX2X:X5X3X;X X X3X3X8XfXxXdX0XiX0XxXMX1X;X0XrXiXgXzXzXpX",
"S V -.A Y r.S '.0XN <.:.2.s B >.5.:.=.&.&.t t , + & 7 2.>.r.! B ;.B 1 $ XXr B -.t.;.C N n w N X.R b I ~ S A A ; x z S S V n S A ",
",.B z -.B ;.-.n >XB y.g.4.>.8.,.8.5.8.=.:.1.:.3.B ; 3.x.f.t.t.t.r.:.N % >XC C >.,.,.>.C w.4.N X.b M b C S B >.4.S -.K t.>.B V >.",
">.3.7.5.:.,.S Z $XA x >.r.r.i.r.5.d.3.0.0.0.f.>.V 4.4.u.g.M.h.( M I Z % %XB 7.-.r * 1 N Z B 5 X.R n ~ u.5.6.3.7.>.;.B 8.:.&.3.C ",
"t -.1.B &.&.-.z |.d b b n n z 2 4 3 < 3 2 < t r * ; e x n f z 9 +   + X ^.@ + + @ : 2 , 4 & @ H.R I ! A C ; # r w N 1 4 < 3 r w ",
"' ^ ] ^ ] W ] R.fXfX;X.XrX.X1X3X9X0X0X4X$X.X1X5X5X|.|.H.^ [ E.^.).R.+.(.iX/.^.^.] T g h F g F >XE g F F E ' R.E F F F T ) ..o.H.",
"#X#X4X`.G v A A 4.t.r.s.s.b.zX(.`.!.W ..k } ' T Q _ ' 4XH.U ^ b.Y.J.~.].-X+X).O.F.).iXuXuX>X9X>XaX9XeXtX9XuX*X+.X.(.$.O.)._.J._.",
"s.a.-XR b 4.A A 3.w.S ;.;.Z iX_ _ F.F._ | M M ~ ` ` b E.W a.( A R M A ! J P ! _ h h $X2 Z >.>.S -.e.d.k.w.K.+XP A r.S y.i.a.I.h.",
"P.G.'.| A ~ M b Y w.,.-.-.2.$X( u.A.G.n.y.n.s.u.s.a.a.F.Q ( S.~ Y A J A M A ` m j d rXr.w.d.u.h.h.h.e.k.k.D.^.M U ( S.K.a.P.Y.U.",
">.S.~.d 3 z z i I ~ t.,.-.-.X.y.r.u.u.h.s.~ a.r.y.s.u. XJ.r.A A D A A ~ ` u.r.A I P uXY r.j.h.p.t.w.d.I.x.i.}.u / G.G.G.a.G.s.s.",
"% # T J.T $ u X % - - $ $ $ R.[ c c c 8 8 9 d 0 % $ > o.@XO.W E g - m c - p c m h yXgX| / ` U b n Z z n m Q qX#...) m g d - - - ",
"|./.,X9X9X%X2X9XrX9XaXlXvXkX&X8X4XtX0XeXeX7X;X XK..X_.-XsX*X*X9X.X%XwX9XhX8X>X3XeX6XMXiXtXiXnXNXgXwX2X5X:X2X0X2X>X5X$X#X$X X|.).",
"> # R A r.u.p.( ,Xa.5.r ~ J ..P.N.M.f.P.j.j.N.V.j.g.4.5.C m m Z B 5.w.P E.V x N B 3 5 N 3 r 6 K.E.A A M A A V v z S S A ` Y - 9 ",
"a - 2 U ~ A U I #XG.l.0.g.g.u.N.y.h.N.g.N.N.u.h.N.M.f.x.5.6.A >.:.>.$ . X.s ;.-.:.<.r 5 5 -.r '.F.Y ! M U a S S L V n n w V Z C ",
"V n V V c U a.( '._ N.f.f.j.f.{.u.n.P.I.N.g.h.h.t.u.s.f.u.4.v w A >.A . ..Z N -.,.;.C B B :.C _ F.A C Y ` ` t.p.y.r.S S n A u.S ",
"$ - z v = & a i ] T q z ; 9 - # - # # q w V J J v v H m G V V z a x % T +.F b.v V 5 < N 1 & < v G = ; & # X 2 * & ; m c ; ; ; ; ",
"fXgXhXhXpXiX0XrXmXmXnXcXeX|.|.dXxXhX0XaX4XuXzXxXpXuXpXpXMXzXxXdXdXiXfXgXbXfXuX4X>X$X0X2X@XrXaXzXbXuXdXgXfX0XfXbXVXVXVXBXBXbXcXxX",
"/ | ,XhX[.U.s.w.f.^ P.S.G._.].'.y.M.` s.M.` ! ! ~ ~ b.F.iX! ~ Z ! _ M ! V y w v b.~ sX) f b I U M U U I R / +XX.b j f b P P b I ",
"w.y.r.9X( s.h.j.V.j.U.U.s.t.L.'.C 4.8.g.g.V.C.g.h.f.f.a.2Xn x N N N x z S C >.4.3.&.+X[ a Z V U r.r.r.V ( / #.#X( U ( U Z A S >.",
"w.p.U #XU p.I.I.V.D.U.P.p.e.].'.w r &.l.x.l.l.8.f.f.f.y.8Xs C n A G I v 4.3.3.L ;.3./.W b U M y.V.U U / _ a ~.].( ~ ! ~ A Y ( ~ ",
"| i.A @X>.t.t.h.j.h.p.j.h.e.E.#XS C 4.6.d.9.0.0.6.~ A U (.s C S : 3 r w t t t t 1 4 X.E b z z J h.p - - i $ O.[.D Y / I A Y ( / ",
"T m ' nX|.$X#X).J.F.J...^ ) `.3XG l g b G J K K A F g E eX2X$X.X/.o.! G J G v v G R |.(.E O.R.o.E [ ..o./.#XvX3Xo.' ' ' o.X.E T ",
"-X#X].~.~.K.| ~.=XbX>X`.`.!.Q.-X~.'.'.`.E.oXOXOX<XOX{.{.U.].[.Y.-X-X~.sX2X$X].E.Y._.(.].Y.Y.s./ 8XXXQ } J.F.].oX-X:X3XrX3X,X,X>X",
"r.f.u.g.d.g.s.y.! kX/ i.! Z K ( F.a.` u.` J K L S 3.u.n.u.n.6.6.K :.Y >Xm x ;.w.>.t.w.D D Z Y a &Xg j P b y.t.t.t.u.d.u.r.f.f.x.",
"w.h.u.r.u.h.A.p.V gXP G.S._ c ~ s.M.h.~ K c L K K 6.6.y.6.n.n.B.u.4.D '.! w D ;.>.>.;.U U U U i *Xj / u.u.a.y.~ Y t.5.t.t.d.p.u.",
"x S S Y a.s.a.t.M hX^ a.a.4.r.u.A K 6.u.u.L ` b.M.n.M.B.3.0.h.U.B.x.C E.Q a N Z N x N x Z N z . ).R i.G.G.i.Y y.>.4.Z M V 4.C A ",
"d m 9 G H H m m O.fXw z A z V c ; 9 ; < w q q e e e y & @ * r : z f v X.] # - c G R ^ R ^ ! ^ $.0Xc ; f 8 $ - 9 e z q - c b v v "
};
